<svg version="1.2" xmlns="http://www.w3.org/2000/svg" viewBox="0 0 18 18" width="18" height="18">
	<title>arrowCircleDark-svg</title>
	<style>
		.s0 { fill: none } 
		.s1 { fill: none;stroke: #333333;stroke-linecap: round;stroke-linejoin: round } 
	</style>
	<g id="Ellipse_1">
		<path id="Layer" class="s0" d="m0 9c0-5 4-9 9-9 5 0 9 4 9 9 0 5-4 9-9 9-5 0-9-4-9-9z"/>
		<path id="Layer" class="s1" d="m0.5 9c0-4.7 3.8-8.5 8.5-8.5 4.7 0 8.5 3.8 8.5 8.5 0 4.7-3.8 8.5-8.5 8.5-4.7 0-8.5-3.8-8.5-8.5z"/>
	</g>
	<g id="Group_1521">
		<path id="Path_14" fill-rule="evenodd" class="s1" d="m11.6 7.1l-2.4 2.4-2.4-2.4"/>
		<path id="Path_15" fill-rule="evenodd" class="s1" d="m11.6 10.2l-2.4 2.4-2.4-2.4"/>
	</g>
</svg>