<svg xmlns="http://www.w3.org/2000/svg" width="22.73" height="22.773" viewBox="0 0 22.73 22.773">
  <path id="Icon_feather-phone" data-name="Icon feather-phone" d="M24.9,19.3v3.278a2.185,2.185,0,0,1-2.382,2.185,21.621,21.621,0,0,1-9.428-3.354,21.3,21.3,0,0,1-6.555-6.555A21.621,21.621,0,0,1,3.177,5.382,2.185,2.185,0,0,1,5.351,3H8.628a2.185,2.185,0,0,1,2.185,1.879,14.028,14.028,0,0,0,.765,3.07,2.185,2.185,0,0,1-.492,2.305L9.7,11.642A17.48,17.48,0,0,0,16.254,18.2l1.387-1.387a2.185,2.185,0,0,1,2.305-.492,14.028,14.028,0,0,0,3.07.765A2.185,2.185,0,0,1,24.9,19.3Z" transform="translate(-2.666 -2.5)" fill="none" stroke="#fff" stroke-linecap="round" stroke-linejoin="round" stroke-width="1"/>
</svg>
