<svg id="Group_909" data-name="Group 909" xmlns="http://www.w3.org/2000/svg" width="22.941" height="22.941" viewBox="0 0 22.941 22.941">
  <rect id="Rectangle_33" data-name="Rectangle 33" width="22.941" height="22.941" rx="11.47" transform="translate(0)" fill="#fff"/>
  <path id="Path_673" data-name="Path 673" d="M417.712,83.233a1.827,1.827,0,1,0,1.827,1.827A1.832,1.832,0,0,0,417.712,83.233Zm5.48,1.827c0-.757.006-1.506-.036-2.262a3.03,3.03,0,0,0-3.179-3.18c-.757-.042-1.507-.036-2.262-.036s-1.506-.006-2.262.036a3.03,3.03,0,0,0-3.179,3.18c-.043.757-.036,1.506-.036,2.262s-.006,1.507.036,2.262a3.03,3.03,0,0,0,3.179,3.18c.757.043,1.507.036,2.262.036s1.506.007,2.262-.036a3.031,3.031,0,0,0,3.179-3.18C423.2,86.567,423.191,85.818,423.191,85.061Zm-5.48,2.811a2.812,2.812,0,1,1,2.812-2.811A2.808,2.808,0,0,1,417.712,87.872Zm2.927-5.082a.657.657,0,1,1,.657-.657.656.656,0,0,1-.657.657Z" transform="translate(-405.726 -73.326)" fill="#a065a0"/>
</svg>
