<svg id="Group_911" data-name="Group 911" xmlns="http://www.w3.org/2000/svg" width="22.941" height="22.941" viewBox="0 0 22.941 22.941">
  <rect id="Rectangle_34" data-name="Rectangle 34" width="22.941" height="22.941" rx="11.47" transform="translate(0)" fill="#fff"/>
  <path id="Path_672" data-name="Path 672" d="M515.344,83.183h2.281v7.334h-2.281Zm1.143-1a1.326,1.326,0,1,1,1.321-1.331v.005a1.321,1.321,0,0,1-1.316,1.326Zm9.679,8.334h-2.282V86.953c0-.85,0-1.921-1.182-1.921s-1.369.9-1.369,1.864v3.626h-2.277V83.183h2.176v1h.029A2.4,2.4,0,0,1,523.423,83c2.305,0,2.733,1.522,2.733,3.5Z" transform="translate(-509.276 -73.274)" fill="#0077b5"/>
</svg>
