<svg id="Group_908" data-name="Group 908" xmlns="http://www.w3.org/2000/svg" width="23.983" height="22.941" viewBox="0 0 23.983 22.941">
  <rect id="Rectangle_32" data-name="Rectangle 32" width="23.983" height="22.941" rx="11.47" transform="translate(0)" fill="#fff"/>
  <path id="Path_670" data-name="Path 670" d="M320.862,85.738a2.483,2.483,0,0,0-.451-1.131,1.624,1.624,0,0,0-1.141-.48c-1.593-.114-3.978-.114-3.978-.114h0s-2.385,0-3.978.114a1.623,1.623,0,0,0-1.141.48,2.484,2.484,0,0,0-.451,1.131,17.244,17.244,0,0,0-.114,1.841v.864a17.256,17.256,0,0,0,.114,1.842,2.451,2.451,0,0,0,.451,1.127,1.917,1.917,0,0,0,1.255.487c.91.088,3.868.113,3.868.113s2.389,0,3.981-.117a1.631,1.631,0,0,0,1.141-.483,2.452,2.452,0,0,0,.452-1.127,17.24,17.24,0,0,0,.114-1.842V87.58A17.128,17.128,0,0,0,320.862,85.738Zm-6.754,3.75v-3.2l3.079,1.618Z" transform="translate(-303.868 -76.963)" fill="red"/>
</svg>
