<svg xmlns="http://www.w3.org/2000/svg" width="973.911" height="321.618" viewBox="0 0 973.911 321.618">
  <path id="Path_16" data-name="Path 16" d="M-177.758,242.422V377.514l-77.388-.028-56.634,50.927,17.585.538a48.524,48.524,0,0,1-41.2,22.86,48.579,48.579,0,0,1-48.579-48.579,48.58,48.58,0,0,1,48.579-48.58,48.458,48.458,0,0,1,36.849,16.943l87.084-70.835A160.478,160.478,0,0,0-335.4,242.422,160.826,160.826,0,0,0-495.071,384.144V242.422H-615.582l-3.075,5.326-43.9,76.044-43.9-76.044-3.075-5.326H-830.053V560.4h334.982V422.318A160.827,160.827,0,0,0-335.4,564.04,160.547,160.547,0,0,0-282.138,555v5.4h105.511V422.315A160.826,160.826,0,0,0-16.95,564.04,160.8,160.8,0,0,0,143.822,406.088h.036V242.422Z" transform="translate(830.053 -242.422)" fill="#fff"/>
</svg>
