<svg id="g4587" xmlns="http://www.w3.org/2000/svg" xmlns:xlink="http://www.w3.org/1999/xlink" width="323.833" height="99.086" viewBox="0 0 323.833 99.086">
  <defs>
    <clipPath id="clip-path">
      <rect id="Rectangle_496" data-name="Rectangle 496" width="175.468" height="17.906" fill="#fff"/>
    </clipPath>
    <clipPath id="clip-path-2">
      <rect id="Rectangle_497" data-name="Rectangle 497" width="8.953" height="23.072" fill="#fff"/>
    </clipPath>
    <clipPath id="clip-path-3">
      <rect id="Rectangle_498" data-name="Rectangle 498" width="6.715" height="18.596" fill="#fff"/>
    </clipPath>
    <clipPath id="clip-path-4">
      <rect id="Rectangle_499" data-name="Rectangle 499" width="31.974" height="6.714" fill="#fff"/>
    </clipPath>
  </defs>
  <path id="path4128" d="M121.5,65.994a6.166,6.166,0,0,0,2.877-.639,4.546,4.546,0,0,0,1.914-1.81,5.274,5.274,0,0,0,.69-2.694V50.5a.318.318,0,0,0-.1-.245.325.325,0,0,0-.245-.088h-1.478a.327.327,0,0,0-.245.088.347.347,0,0,0-.087.245V60.9a3.143,3.143,0,0,1-.918,2.351,3.721,3.721,0,0,1-4.835,0,3.125,3.125,0,0,1-.935-2.351V50.5a.309.309,0,0,0-.088-.245.325.325,0,0,0-.245-.088h-1.477a.325.325,0,0,0-.245.088A.307.307,0,0,0,116,50.5V60.851a5.186,5.186,0,0,0,.692,2.694,4.641,4.641,0,0,0,1.931,1.81,6.166,6.166,0,0,0,2.877.639m13.8-11.716a3.37,3.37,0,0,0-2.822,1.189.039.039,0,0,1-.062.018.1.1,0,0,1-.044-.088v-.63a.328.328,0,0,0-.1-.245.309.309,0,0,0-.244-.087h-1.469a.343.343,0,0,0-.253.087.361.361,0,0,0-.088.245V65.48a.343.343,0,0,0,.088.244.348.348,0,0,0,.253.1h1.469a.33.33,0,0,0,.341-.339V58.239a2.3,2.3,0,0,1,.769-1.539,2.4,2.4,0,0,1,1.618-.569,2.242,2.242,0,0,1,1.724.7,2.512,2.512,0,0,1,.646,1.808V65.48a.328.328,0,0,0,.339.339h1.478a.323.323,0,0,0,.245-.1.342.342,0,0,0,.089-.244V58.213a3.877,3.877,0,0,0-1.076-2.876,3.971,3.971,0,0,0-2.9-1.06m8.3-1.539a1.451,1.451,0,0,0,1.049-.392,1.49,1.49,0,0,0,0-2.038,1.446,1.446,0,0,0-1.049-.385,1.491,1.491,0,0,0-1.069.385,1.472,1.472,0,0,0,0,2.038,1.5,1.5,0,0,0,1.069.392m-.745,13.08h1.478a.326.326,0,0,0,.246-.1.311.311,0,0,0,.087-.244V54.767a.331.331,0,0,0-.087-.245.326.326,0,0,0-.246-.088h-1.478a.3.3,0,0,0-.33.333V65.478a.3.3,0,0,0,.087.244.325.325,0,0,0,.243.1m8.185,0h1.7a.38.38,0,0,0,.385-.272l3.558-10.708a.372.372,0,0,0-.025-.281.275.275,0,0,0-.246-.1l-1.662-.018a.381.381,0,0,0-.234.08.313.313,0,0,0-.14.209l-2.413,7.983c-.018.061-.043.1-.071.1s-.052-.026-.061-.079l-2.439-8.009a.3.3,0,0,0-.14-.209.4.4,0,0,0-.243-.08h-1.653c-.192,0-.289.08-.289.245a.292.292,0,0,0,.026.14l3.567,10.728a.378.378,0,0,0,.385.271m12.187-1.659a3.08,3.08,0,0,1-1.835-.516,2.392,2.392,0,0,1-.979-1.409,5.022,5.022,0,0,1-.158-1.206.092.092,0,0,1,.1-.1h7.065a.3.3,0,0,0,.341-.342,19.244,19.244,0,0,0-.157-2.01,5.662,5.662,0,0,0-1.452-3.208,4.444,4.444,0,0,0-3.243-1.11,4.8,4.8,0,0,0-2.929.9,4.239,4.239,0,0,0-1.609,2.431,9.442,9.442,0,0,0-.245,2.482,8.324,8.324,0,0,0,.56,3.2,4.235,4.235,0,0,0,1.652,2.019,4.844,4.844,0,0,0,2.685.709,5.132,5.132,0,0,0,2.58-.63,4.344,4.344,0,0,0,1.712-1.721l.043-.175a.338.338,0,0,0-.174-.29l-.918-.558a.337.337,0,0,0-.2-.07c-.088,0-.174.07-.254.2a2.755,2.755,0,0,1-2.587,1.409m-.316-8.045a2.468,2.468,0,0,1,2.527,1.925,6.142,6.142,0,0,1,.132,1.092c0,.079-.036.114-.1.114h-5.08c-.08,0-.114-.035-.114-.114a5.356,5.356,0,0,1,.2-1.251,2.311,2.311,0,0,1,.839-1.293,2.5,2.5,0,0,1,1.6-.473m12.538-1.791a3.1,3.1,0,0,0-2.72,1.521c-.034.043-.061.061-.079.061s-.035-.043-.035-.1V54.767a.364.364,0,0,0-.085-.245.352.352,0,0,0-.255-.088H170.8a.315.315,0,0,0-.246.088.329.329,0,0,0-.1.245V65.478a.328.328,0,0,0,.342.339h1.468a.351.351,0,0,0,.255-.1.344.344,0,0,0,.085-.244V59.061a2.412,2.412,0,0,1,.683-1.777,2.5,2.5,0,0,1,1.731-.725,1.556,1.556,0,0,1,.333-.026,2.3,2.3,0,0,1,.76.114.483.483,0,0,0,.175.026.221.221,0,0,0,.236-.227L176.835,55a.363.363,0,0,0-.175-.429,2.881,2.881,0,0,0-1.215-.246m7.2,11.629a5.233,5.233,0,0,0,3.208-.892,2.875,2.875,0,0,0,1.2-2.412,2.6,2.6,0,0,0-.6-1.784,3.9,3.9,0,0,0-1.469-1.032,21.634,21.634,0,0,0-2.159-.7,9.356,9.356,0,0,1-1.907-.716,1.065,1.065,0,0,1-.595-.979,1.173,1.173,0,0,1,.613-1.032,3.652,3.652,0,0,1,3.33.053,1.29,1.29,0,0,1,.639,1.093v.131c0,.043.035.079.1.114a.578.578,0,0,0,.237.043h1.346a.366.366,0,0,0,.246-.078.267.267,0,0,0,.087-.21,2.745,2.745,0,0,0-.534-1.663,3.464,3.464,0,0,0-1.53-1.144,5.85,5.85,0,0,0-2.291-.421,5.11,5.11,0,0,0-3.122.883,2.831,2.831,0,0,0-1.171,2.379,2.545,2.545,0,0,0,.595,1.755,3.9,3.9,0,0,0,1.451,1.05,15.226,15.226,0,0,0,2.133.727,9.4,9.4,0,0,1,1.881.69,1.034,1.034,0,0,1,.576.97,1.283,1.283,0,0,1-.62,1.1,2.8,2.8,0,0,1-1.661.438,2.927,2.927,0,0,1-1.706-.473,1.319,1.319,0,0,1-.681-1.093v-.175a.142.142,0,0,0-.088-.113.492.492,0,0,0-.244-.044h-1.391a.327.327,0,0,0-.246.088.322.322,0,0,0-.086.244v.141a2.433,2.433,0,0,0,.551,1.547,3.7,3.7,0,0,0,1.582,1.11,6.264,6.264,0,0,0,2.335.4m8.156-13.211a1.457,1.457,0,0,0,1.058-.394,1.488,1.488,0,0,0,0-2.036,1.452,1.452,0,0,0-1.058-.386,1.466,1.466,0,0,0-1.058.386,1.471,1.471,0,0,0,0,2.036,1.472,1.472,0,0,0,1.058.394m-.734,13.079h1.478a.33.33,0,0,0,.246-.1.313.313,0,0,0,.085-.244V54.767a.3.3,0,0,0-.332-.333h-1.478a.3.3,0,0,0-.332.333V65.478a.309.309,0,0,0,.087.244.325.325,0,0,0,.245.1m10.711-9.948v-1.1a.326.326,0,0,0-.087-.245.349.349,0,0,0-.254-.088h-2.275c-.078,0-.113-.034-.113-.114v-2.5a.315.315,0,0,0-.341-.341h-1.381a.328.328,0,0,0-.246.1.313.313,0,0,0-.087.245v2.5a.1.1,0,0,1-.114.114h-1.232a.3.3,0,0,0-.333.333v1.1a.321.321,0,0,0,.087.244.327.327,0,0,0,.246.089h1.232a.1.1,0,0,1,.114.113v6.619a2.594,2.594,0,0,0,.847,2.255,4.464,4.464,0,0,0,2.571.6l.917-.018a.337.337,0,0,0,.333-.359V64.253a.379.379,0,0,0-.087-.253.365.365,0,0,0-.246-.087h-.541a1.842,1.842,0,0,1-1.328-.4,1.867,1.867,0,0,1-.412-1.365V56.314c0-.078.035-.113.113-.113h2.275a.349.349,0,0,0,.254-.088.322.322,0,0,0,.087-.245m3.891-3.129a1.448,1.448,0,0,0,1.049-.394,1.493,1.493,0,0,0,0-2.037,1.442,1.442,0,0,0-1.049-.385,1.485,1.485,0,0,0-1.066.385,1.466,1.466,0,0,0,0,2.037,1.491,1.491,0,0,0,1.066.394m-.734,13.079h1.469a.317.317,0,0,0,.245-.1.307.307,0,0,0,.087-.245V54.767a.318.318,0,0,0-.087-.245.314.314,0,0,0-.245-.089h-1.469a.348.348,0,0,0-.254.089.356.356,0,0,0-.088.245v10.71a.342.342,0,0,0,.088.245.351.351,0,0,0,.254.1m9.881-1.659a3.075,3.075,0,0,1-1.835-.516A2.4,2.4,0,0,1,211,62.233a4.975,4.975,0,0,1-.157-1.206.092.092,0,0,1,.1-.1h7.063a.3.3,0,0,0,.341-.342c-.035-.786-.078-1.46-.157-2.01a5.654,5.654,0,0,0-1.452-3.208,4.444,4.444,0,0,0-3.243-1.11,4.8,4.8,0,0,0-2.929.9,4.283,4.283,0,0,0-1.609,2.431,9.453,9.453,0,0,0-.243,2.482,8.531,8.531,0,0,0,.549,3.2,4.313,4.313,0,0,0,1.662,2.019,4.843,4.843,0,0,0,2.684.709,5.123,5.123,0,0,0,2.579-.63,4.4,4.4,0,0,0,1.715-1.721l.043-.175a.331.331,0,0,0-.184-.29l-.917-.558a.306.306,0,0,0-.2-.07c-.085,0-.166.07-.236.2a2.78,2.78,0,0,1-2.6,1.409m-.316-8.045a2.577,2.577,0,0,1,1.645.525,2.545,2.545,0,0,1,.883,1.4,6.169,6.169,0,0,1,.131,1.092c0,.079-.035.114-.114.114h-5.072a.1.1,0,0,1-.114-.114,5.025,5.025,0,0,1,.2-1.251,2.309,2.309,0,0,1,.838-1.293,2.5,2.5,0,0,1,1.6-.473m11.559,9.836a5.233,5.233,0,0,0,3.208-.891,2.881,2.881,0,0,0,1.2-2.413,2.6,2.6,0,0,0-.6-1.784,3.894,3.894,0,0,0-1.469-1.032,21.528,21.528,0,0,0-2.159-.7,9.387,9.387,0,0,1-1.907-.716,1.068,1.068,0,0,1-.595-.979,1.164,1.164,0,0,1,.622-1.032,2.963,2.963,0,0,1,1.591-.376,3.014,3.014,0,0,1,1.731.429,1.29,1.29,0,0,1,.639,1.093v.131c0,.043.035.079.1.114a.586.586,0,0,0,.244.043H229a.351.351,0,0,0,.246-.078.269.269,0,0,0,.1-.21,2.76,2.76,0,0,0-.541-1.663,3.478,3.478,0,0,0-1.531-1.144,5.85,5.85,0,0,0-2.291-.421,5.058,5.058,0,0,0-3.12.885,2.825,2.825,0,0,0-1.172,2.378,2.548,2.548,0,0,0,.595,1.756,3.908,3.908,0,0,0,1.451,1.049,14.907,14.907,0,0,0,2.135.727,9.2,9.2,0,0,1,1.879.69,1.034,1.034,0,0,1,.576.97,1.3,1.3,0,0,1-.62,1.1,2.8,2.8,0,0,1-1.661.438,2.92,2.92,0,0,1-1.7-.473,1.317,1.317,0,0,1-.683-1.093v-.175c0-.043-.026-.087-.1-.113a.444.444,0,0,0-.236-.044h-1.391a.324.324,0,0,0-.245.088.32.32,0,0,0-.087.244v.141a2.447,2.447,0,0,0,.551,1.547,3.7,3.7,0,0,0,1.582,1.11,6.271,6.271,0,0,0,2.335.4" transform="translate(33.615 14.094)" fill="#fff"/>
  <g id="Group_1128" data-name="Group 1128" transform="translate(148.365 40.202)">
    <g id="Group_1127" data-name="Group 1127" clip-path="url(#clip-path)">
      <g id="g4132" transform="translate(0.804 1.52)">
        <path id="path4130" d="M120.665,48.72a4.835,4.835,0,0,0,2.833-.838,4.485,4.485,0,0,0,1.7-2.335,8.765,8.765,0,0,0,.4-2.755,8.244,8.244,0,0,0-.4-2.684,4.584,4.584,0,0,0-1.714-2.29,4.752,4.752,0,0,0-2.807-.839,5.084,5.084,0,0,0-2.929.839,4.412,4.412,0,0,0-1.723,2.317,8.229,8.229,0,0,0-.376,2.684,8.494,8.494,0,0,0,.4,2.728,4.383,4.383,0,0,0,1.7,2.335,5,5,0,0,0,2.9.838m0-1.863a2.665,2.665,0,0,1-1.644-.5,2.552,2.552,0,0,1-.953-1.416,7.38,7.38,0,0,1-.245-2.107,7.032,7.032,0,0,1,.245-2.071,2.7,2.7,0,0,1,.962-1.425,2.6,2.6,0,0,1,1.591-.508,2.65,2.65,0,0,1,1.627.508,2.707,2.707,0,0,1,.961,1.425,8.063,8.063,0,0,1,.228,2.071,7.63,7.63,0,0,1-.245,2.107,2.784,2.784,0,0,1-.97,1.416,2.5,2.5,0,0,1-1.557.5M133.2,34.766h.429a.3.3,0,0,0,.332-.332V33.227a.317.317,0,0,0-.085-.245.335.335,0,0,0-.246-.1h-.648a6.087,6.087,0,0,0-2.325.35,2.139,2.139,0,0,0-1.181,1.145,6.1,6.1,0,0,0-.341,2.282v.385a.1.1,0,0,1-.113.114H127.66a.324.324,0,0,0-.245.087.32.32,0,0,0-.088.245v1.3a.336.336,0,0,0,.088.245.365.365,0,0,0,.245.088h1.364a.1.1,0,0,1,.113.1V48.2a.307.307,0,0,0,.333.333h1.478a.323.323,0,0,0,.245-.089.319.319,0,0,0,.087-.244v-8.97c0-.071.035-.1.114-.1h2.214a.341.341,0,0,0,.244-.088.345.345,0,0,0,.1-.245v-1.3a.325.325,0,0,0-.1-.245.31.31,0,0,0-.244-.087h-2.214c-.079,0-.114-.035-.114-.114V36.8a2.424,2.424,0,0,1,.4-1.609,2.073,2.073,0,0,1,1.523-.429M146.17,48.737a6.151,6.151,0,0,0,2.841-.619,4.673,4.673,0,0,0,1.916-1.759,4.925,4.925,0,0,0,.681-2.606v-.1c0-.053-.114-.088-.333-.122l-1.477-.088a.343.343,0,0,0-.245.043.23.23,0,0,0-.087.2,3.106,3.106,0,0,1-.9,2.308,3.292,3.292,0,0,1-2.395.865,3.342,3.342,0,0,1-2.405-.865,3.075,3.075,0,0,1-.9-2.308V37.738a3.042,3.042,0,0,1,.9-2.3,3.309,3.309,0,0,1,2.405-.873,3.259,3.259,0,0,1,2.395.873,3.072,3.072,0,0,1,.9,2.3v.14c0,.026.017.052.061.087a.342.342,0,0,0,.183.044h.088l1.477-.088c.219-.035.333-.122.333-.271a4.9,4.9,0,0,0-.681-2.6,4.594,4.594,0,0,0-1.916-1.732,6.266,6.266,0,0,0-2.841-.613,6.132,6.132,0,0,0-2.851.639,4.614,4.614,0,0,0-1.916,1.784,5.09,5.09,0,0,0-.69,2.676V43.6a5.165,5.165,0,0,0,.69,2.692,4.5,4.5,0,0,0,1.916,1.812,6.148,6.148,0,0,0,2.851.637m12.922-.018a4.844,4.844,0,0,0,2.842-.839,4.414,4.414,0,0,0,1.7-2.334,8.5,8.5,0,0,0,.412-2.754,8,8,0,0,0-.412-2.685,4.561,4.561,0,0,0-1.7-2.29,4.755,4.755,0,0,0-2.807-.839,5.064,5.064,0,0,0-2.929.839,4.405,4.405,0,0,0-1.723,2.317,8.244,8.244,0,0,0-.385,2.684,8.523,8.523,0,0,0,.412,2.728,4.355,4.355,0,0,0,1.712,2.334,4.927,4.927,0,0,0,2.886.839m0-1.861a2.736,2.736,0,0,1-1.644-.5,2.594,2.594,0,0,1-.944-1.417,7.334,7.334,0,0,1-.245-2.107,6.989,6.989,0,0,1,.245-2.071,2.716,2.716,0,0,1,.962-1.425,2.583,2.583,0,0,1,1.582-.508,2.661,2.661,0,0,1,1.636.508,2.707,2.707,0,0,1,.961,1.425,8.076,8.076,0,0,1,.228,2.071,7.6,7.6,0,0,1-.254,2.107,2.72,2.72,0,0,1-.962,1.417,2.524,2.524,0,0,1-1.565.5M178.66,37a4.657,4.657,0,0,0-1.96.411,3.141,3.141,0,0,0-1.389,1.285c-.062.062-.124.062-.158,0a3.029,3.029,0,0,0-1.268-1.258A4.064,4.064,0,0,0,171.954,37a3.547,3.547,0,0,0-2.842,1.163.072.072,0,0,1-.088.018c-.035-.009-.044-.044-.044-.088v-.6a.36.36,0,0,0-.087-.245.346.346,0,0,0-.254-.087h-1.477a.315.315,0,0,0-.334.332V48.206a.3.3,0,0,0,.1.244.307.307,0,0,0,.237.088h1.477a.342.342,0,0,0,.254-.088.357.357,0,0,0,.087-.244V41.254a2.433,2.433,0,0,1,.613-1.749,2.177,2.177,0,0,1,1.642-.646,2.15,2.15,0,0,1,1.645.655,2.527,2.527,0,0,1,.613,1.784v6.908a.329.329,0,0,0,.1.244.323.323,0,0,0,.245.088h1.449a.305.305,0,0,0,.334-.332V41.254a2.381,2.381,0,0,1,.646-1.749,2.3,2.3,0,0,1,1.679-.646,2.145,2.145,0,0,1,1.645.655A2.532,2.532,0,0,1,180.2,41.3v6.908a.324.324,0,0,0,.1.244.32.32,0,0,0,.244.088h1.451a.321.321,0,0,0,.246-.088.328.328,0,0,0,.087-.244V40.852a3.9,3.9,0,0,0-.979-2.833A3.571,3.571,0,0,0,178.66,37m18.466,0a4.561,4.561,0,0,0-1.949.412,3.1,3.1,0,0,0-1.4,1.285c-.061.061-.114.061-.157,0a3,3,0,0,0-1.269-1.259A4.038,4.038,0,0,0,190.42,37a3.549,3.549,0,0,0-2.842,1.163.07.07,0,0,1-.088.018.091.091,0,0,1-.043-.088v-.6a.32.32,0,0,0-.088-.245.325.325,0,0,0-.245-.088h-1.478a.309.309,0,0,0-.245.088.32.32,0,0,0-.087.245V48.206a.318.318,0,0,0,.087.244.309.309,0,0,0,.245.088h1.477a.305.305,0,0,0,.334-.332V41.254a2.472,2.472,0,0,1,.611-1.749,2.182,2.182,0,0,1,1.642-.646,2.145,2.145,0,0,1,1.645.655,2.531,2.531,0,0,1,.62,1.784v6.908a.324.324,0,0,0,.088.244.318.318,0,0,0,.245.088h1.451a.32.32,0,0,0,.245-.088.324.324,0,0,0,.088-.244V41.254a2.35,2.35,0,0,1,.655-1.749,2.269,2.269,0,0,1,1.67-.646,2.171,2.171,0,0,1,1.651.655,2.563,2.563,0,0,1,.613,1.784v6.908a.324.324,0,0,0,.088.244.32.32,0,0,0,.245.088h1.451a.352.352,0,0,0,.254-.088.364.364,0,0,0,.088-.244V40.852a3.9,3.9,0,0,0-.988-2.833A3.571,3.571,0,0,0,197.125,37m11.322,11.717a4.836,4.836,0,0,0,2.833-.839,4.4,4.4,0,0,0,1.7-2.335,8.461,8.461,0,0,0,.412-2.754,7.958,7.958,0,0,0-.412-2.684,4.564,4.564,0,0,0-1.7-2.291,4.751,4.751,0,0,0-2.806-.839,5.071,5.071,0,0,0-2.93.839,4.351,4.351,0,0,0-1.721,2.317,8.182,8.182,0,0,0-.386,2.685,8.479,8.479,0,0,0,.412,2.727,4.374,4.374,0,0,0,1.706,2.335,4.974,4.974,0,0,0,2.9.839m0-1.863a2.713,2.713,0,0,1-1.651-.5,2.659,2.659,0,0,1-.955-1.416,7.734,7.734,0,0,1-.243-2.107,7.362,7.362,0,0,1,.243-2.072,2.819,2.819,0,0,1,.961-1.425,2.62,2.62,0,0,1,1.592-.506,2.676,2.676,0,0,1,1.636.506,2.722,2.722,0,0,1,.962,1.425,8.144,8.144,0,0,1,.227,2.072,7.6,7.6,0,0,1-.254,2.107A2.76,2.76,0,0,1,210,46.36a2.539,2.539,0,0,1-1.556.5M221.257,37a3.387,3.387,0,0,0-2.824,1.181c-.01.034-.035.034-.062.026a.1.1,0,0,1-.052-.1v-.62a.32.32,0,0,0-.088-.245.311.311,0,0,0-.245-.087h-1.477a.3.3,0,0,0-.333.332V48.2a.315.315,0,0,0,.088.244.319.319,0,0,0,.245.089h1.477a.308.308,0,0,0,.245-.089.315.315,0,0,0,.088-.244V40.965a2.3,2.3,0,0,1,.778-1.539,2.4,2.4,0,0,1,1.618-.569,2.282,2.282,0,0,1,1.723.69,2.537,2.537,0,0,1,.646,1.82V48.2a.352.352,0,0,0,.087.244.341.341,0,0,0,.253.089h1.47a.324.324,0,0,0,.253-.089.347.347,0,0,0,.089-.244V40.939a3.863,3.863,0,0,0-1.076-2.877,3.952,3.952,0,0,0-2.9-1.058M230.6,48.537h1.583a.336.336,0,0,0,.359-.289l2.037-7.4c.01-.052.035-.07.061-.07s.053.018.07.07l2.142,7.4a.356.356,0,0,0,.385.289H238.8a.434.434,0,0,0,.246-.079.3.3,0,0,0,.139-.21l3.176-10.685a.323.323,0,0,0-.036-.28.306.306,0,0,0-.262-.1l-1.522-.017a.343.343,0,0,0-.359.288l-2.158,8.009c-.018.035-.044.061-.071.061s-.052-.026-.07-.061L235.7,37.466a.344.344,0,0,0-.368-.288h-1.382a.335.335,0,0,0-.357.288l-2.124,7.966c-.017.043-.035.061-.07.061s-.044-.018-.061-.061l-2.082-7.983a.335.335,0,0,0-.358-.288h-1.522c-.2,0-.306.087-.306.262a.218.218,0,0,0,.018.114l3.131,10.71a.35.35,0,0,0,.383.29m18.291-1.654a3.138,3.138,0,0,1-1.835-.516,2.477,2.477,0,0,1-.988-1.408,5.485,5.485,0,0,1-.157-1.207c0-.069.043-.1.113-.1h7.066a.3.3,0,0,0,.332-.341c-.026-.8-.079-1.46-.15-2.012a5.592,5.592,0,0,0-1.46-3.208,4.38,4.38,0,0,0-3.243-1.111,4.713,4.713,0,0,0-2.918.9,4.2,4.2,0,0,0-1.61,2.43,9.33,9.33,0,0,0-.254,2.483,8.493,8.493,0,0,0,.561,3.2,4.316,4.316,0,0,0,1.661,2.018,4.787,4.787,0,0,0,2.675.709,5.171,5.171,0,0,0,2.588-.628,4.314,4.314,0,0,0,1.706-1.723l.052-.175a.333.333,0,0,0-.184-.288l-.918-.561a.282.282,0,0,0-.2-.07c-.088,0-.167.07-.245.2a2.78,2.78,0,0,1-2.589,1.408m-.324-8.052a2.563,2.563,0,0,1,1.645.532,2.423,2.423,0,0,1,.883,1.4,6.859,6.859,0,0,1,.139,1.093.1.1,0,0,1-.114.113h-5.07a.1.1,0,0,1-.114-.113,4.964,4.964,0,0,1,.2-1.25,2.363,2.363,0,0,1,.839-1.3,2.533,2.533,0,0,1,1.591-.471m11.743-1.855a5.38,5.38,0,0,0-3.053.823,3.041,3.041,0,0,0-1.442,2.089.173.173,0,0,0,.07.184.451.451,0,0,0,.245.1l1.609.2a.343.343,0,0,0,.383-.271,1.574,1.574,0,0,1,.745-.935,2.872,2.872,0,0,1,1.487-.341,2.4,2.4,0,0,1,1.73.549,2.013,2.013,0,0,1,.576,1.531V41.5a.105.105,0,0,1-.114.114h-2.483a5.234,5.234,0,0,0-3.408.988,3.336,3.336,0,0,0-1.218,2.745,3.054,3.054,0,0,0,1.05,2.535,4.149,4.149,0,0,0,2.684.839,5.358,5.358,0,0,0,1.861-.313,4.309,4.309,0,0,0,1.488-.892c.034-.026.061-.035.085-.026a.087.087,0,0,1,.053.088V48.2a.316.316,0,0,0,.088.245.327.327,0,0,0,.243.089h1.479a.309.309,0,0,0,.333-.334v-7.44a3.542,3.542,0,0,0-.552-1.958,3.606,3.606,0,0,0-1.565-1.346,5.58,5.58,0,0,0-2.378-.482m-.6,9.934a2.583,2.583,0,0,1-1.531-.429,1.444,1.444,0,0,1-.595-1.251,1.641,1.641,0,0,1,.78-1.433,3.811,3.811,0,0,1,2.106-.508h2.08c.071,0,.114.035.114.1v1.294a1.89,1.89,0,0,1-.882,1.592,3.5,3.5,0,0,1-2.072.63m8.342,1.626h1.477a.33.33,0,0,0,.246-.088.325.325,0,0,0,.087-.245V33.226a.318.318,0,0,0-.087-.245.338.338,0,0,0-.246-.1h-1.477a.332.332,0,0,0-.246.1.317.317,0,0,0-.1.245V48.2a.317.317,0,0,0,.342.333m10.57-9.949V37.494a.324.324,0,0,0-.087-.245.314.314,0,0,0-.245-.088h-2.284a.1.1,0,0,1-.114-.114v-2.5a.343.343,0,0,0-.087-.253.359.359,0,0,0-.246-.088h-1.381a.321.321,0,0,0-.342.341v2.5c0,.079-.034.114-.113.114H272.5a.308.308,0,0,0-.243.087.33.33,0,0,0-.1.245v1.093a.325.325,0,0,0,.1.245.313.313,0,0,0,.243.1h1.224c.079,0,.113.036.113.114v6.61a2.619,2.619,0,0,0,.85,2.264,4.486,4.486,0,0,0,2.579.6l.918-.018a.344.344,0,0,0,.332-.367V46.971a.329.329,0,0,0-.1-.245.3.3,0,0,0-.234-.087h-.541a1.5,1.5,0,0,1-1.75-1.765V39.041a.1.1,0,0,1,.114-.114h2.282a.313.313,0,0,0,.243-.1.321.321,0,0,0,.089-.245M286.341,37a3.371,3.371,0,0,0-2.815,1.18.053.053,0,0,1-.071.027c-.035-.019-.043-.044-.043-.1V33.227a.342.342,0,0,0-.088-.245.368.368,0,0,0-.254-.1h-1.477a.311.311,0,0,0-.237.1.316.316,0,0,0-.1.245V48.2a.321.321,0,0,0,.1.245.306.306,0,0,0,.237.089h1.477a.362.362,0,0,0,.254-.089.354.354,0,0,0,.088-.245V40.965a2.288,2.288,0,0,1,.769-1.539,2.4,2.4,0,0,1,1.617-.569,2.263,2.263,0,0,1,1.723.69,2.532,2.532,0,0,1,.648,1.82V48.2a.318.318,0,0,0,.341.334h1.468a.315.315,0,0,0,.246-.089.3.3,0,0,0,.1-.245V40.939a3.865,3.865,0,0,0-1.075-2.878,3.957,3.957,0,0,0-2.9-1.057" transform="translate(-115.655 -32.71)" fill="#fff"/>
      </g>
    </g>
  </g>
  <path id="path4134" d="M126.183,15.642H115.7a.34.34,0,0,0-.254.088.358.358,0,0,0-.088.245V17.18a.383.383,0,0,0,.088.254.387.387,0,0,0,.254.088h3.951c.079,0,.114.034.114.114V30.961a.324.324,0,0,0,.088.245.327.327,0,0,0,.245.087h1.477a.311.311,0,0,0,.245-.087.324.324,0,0,0,.088-.245V17.636a.1.1,0,0,1,.113-.114h4.163a.361.361,0,0,0,.245-.088.346.346,0,0,0,.087-.254V15.974a.3.3,0,0,0-.332-.333m7.8,4.119a3.385,3.385,0,0,0-2.816,1.18c-.009.035-.035.035-.07.026a.111.111,0,0,1-.035-.1v-4.9a.33.33,0,0,0-.1-.246.321.321,0,0,0-.243-.087h-1.478a.324.324,0,0,0-.245.087.329.329,0,0,0-.087.246V30.96a.3.3,0,0,0,.332.333h1.478a.322.322,0,0,0,.243-.088.325.325,0,0,0,.1-.245V23.711a2.235,2.235,0,0,1,.769-1.53,2.359,2.359,0,0,1,1.618-.569,2.249,2.249,0,0,1,1.723.692,2.564,2.564,0,0,1,.646,1.81V30.96a.3.3,0,0,0,.1.245.309.309,0,0,0,.237.088h1.478a.306.306,0,0,0,.341-.333V23.694a3.865,3.865,0,0,0-1.076-2.877,3.954,3.954,0,0,0-2.911-1.057m11.83,9.879a3.182,3.182,0,0,1-1.837-.516A2.468,2.468,0,0,1,143,27.716a5.05,5.05,0,0,1-.157-1.206c0-.079.035-.114.114-.114h7.063a.3.3,0,0,0,.333-.333c-.026-.8-.08-1.469-.148-2.01a5.634,5.634,0,0,0-1.461-3.218,4.43,4.43,0,0,0-3.245-1.1,4.751,4.751,0,0,0-2.92.892,4.251,4.251,0,0,0-1.617,2.439,9.352,9.352,0,0,0-.245,2.483,8.559,8.559,0,0,0,.558,3.2,4.4,4.4,0,0,0,1.662,2.019,4.8,4.8,0,0,0,2.675.7,5.1,5.1,0,0,0,2.58-.622,4.376,4.376,0,0,0,1.712-1.721l.044-.184a.349.349,0,0,0-.175-.289l-.917-.56a.352.352,0,0,0-.2-.061c-.087,0-.174.061-.245.2a2.807,2.807,0,0,1-2.6,1.408m-.315-8.053a2.469,2.469,0,0,1,2.526,1.924,6.789,6.789,0,0,1,.141,1.1.1.1,0,0,1-.114.1h-5.08a.1.1,0,0,1-.113-.1,5.363,5.363,0,0,1,.209-1.259,2.363,2.363,0,0,1,.832-1.294,2.551,2.551,0,0,1,1.6-.473m21.893,9.706H169c.193,0,.289-.079.289-.245a.425.425,0,0,0-.018-.132l-4.878-15a.36.36,0,0,0-.376-.271H161.95a.365.365,0,0,0-.374.271l-4.828,15c-.078.254.009.377.271.377H158.6a.351.351,0,0,0,.374-.272l.788-2.5c.027-.062.061-.1.113-.1h6.236c.044,0,.078.034.113.1l.788,2.5a.354.354,0,0,0,.376.272m-7.046-4.7,2.579-8.34c.009-.061.035-.088.061-.088s.053.026.071.088l2.588,8.34c.034.088,0,.132-.089.132h-5.114c-.079,0-.1-.044-.1-.132m15.275,4.835a5.228,5.228,0,0,0,3.207-.9,2.856,2.856,0,0,0,1.2-2.413,2.568,2.568,0,0,0-.6-1.776,3.718,3.718,0,0,0-1.466-1.031,19.36,19.36,0,0,0-2.161-.7,9.813,9.813,0,0,1-1.905-.718,1.062,1.062,0,0,1-.595-.988,1.163,1.163,0,0,1,.611-1.031,3.622,3.622,0,0,1,3.33.061,1.265,1.265,0,0,1,.639,1.084v.132a.14.14,0,0,0,.087.113.634.634,0,0,0,.246.044h1.346a.35.35,0,0,0,.245-.079.259.259,0,0,0,.088-.21,2.729,2.729,0,0,0-.532-1.652,3.418,3.418,0,0,0-1.531-1.154,5.838,5.838,0,0,0-2.291-.412,5.008,5.008,0,0,0-3.12.883,2.83,2.83,0,0,0-1.172,2.378,2.546,2.546,0,0,0,.595,1.758,3.908,3.908,0,0,0,1.451,1.049,17.07,17.07,0,0,0,2.135.725,8.8,8.8,0,0,1,1.879.683,1.049,1.049,0,0,1,.578.97,1.328,1.328,0,0,1-.622,1.11,2.867,2.867,0,0,1-1.661.438,2.923,2.923,0,0,1-1.7-.473,1.336,1.336,0,0,1-.683-1.092v-.184c0-.044-.036-.079-.1-.114a.563.563,0,0,0-.234-.044h-1.392a.327.327,0,0,0-.243.1.315.315,0,0,0-.1.245v.131a2.474,2.474,0,0,0,.56,1.556,3.7,3.7,0,0,0,1.582,1.1,6.261,6.261,0,0,0,2.335.411m10.641,0a5.228,5.228,0,0,0,3.207-.9,2.858,2.858,0,0,0,1.2-2.413,2.566,2.566,0,0,0-.6-1.775,3.7,3.7,0,0,0-1.468-1.032,18.375,18.375,0,0,0-2.151-.7,9.845,9.845,0,0,1-1.914-.716,1.08,1.08,0,0,1-.595-.988,1.175,1.175,0,0,1,.62-1.032,2.971,2.971,0,0,1,1.592-.376,3.072,3.072,0,0,1,1.741.438,1.276,1.276,0,0,1,.628,1.084v.131a.135.135,0,0,0,.1.114.631.631,0,0,0,.246.043H190.2a.336.336,0,0,0,.236-.078.269.269,0,0,0,.1-.21,2.74,2.74,0,0,0-.54-1.653,3.418,3.418,0,0,0-1.531-1.154,5.861,5.861,0,0,0-2.291-.411,5.05,5.05,0,0,0-3.122.882,2.832,2.832,0,0,0-1.171,2.378,2.59,2.59,0,0,0,.595,1.758,3.908,3.908,0,0,0,1.451,1.049,17.493,17.493,0,0,0,2.133.725,8.819,8.819,0,0,1,1.881.683,1.056,1.056,0,0,1,.578.97,1.31,1.31,0,0,1-.623,1.111,2.865,2.865,0,0,1-1.652.437,2.919,2.919,0,0,1-1.712-.473,1.336,1.336,0,0,1-.684-1.092v-.184c0-.044-.025-.078-.087-.114a.646.646,0,0,0-.244-.043H182.12a.331.331,0,0,0-.243.1.309.309,0,0,0-.088.245v.131a2.478,2.478,0,0,0,.55,1.557,3.694,3.694,0,0,0,1.583,1.1,6.29,6.29,0,0,0,2.335.412m11.584.035a4.861,4.861,0,0,0,2.841-.83,4.439,4.439,0,0,0,1.7-2.343,8.462,8.462,0,0,0,.4-2.746,8,8,0,0,0-.4-2.684,4.6,4.6,0,0,0-1.714-2.291,4.758,4.758,0,0,0-2.807-.839,5.088,5.088,0,0,0-2.93.839,4.47,4.47,0,0,0-1.721,2.308,8.275,8.275,0,0,0-.376,2.685,8.542,8.542,0,0,0,.4,2.728,4.471,4.471,0,0,0,1.714,2.343,4.959,4.959,0,0,0,2.894.83m0-1.854a2.716,2.716,0,0,1-1.642-.5,2.669,2.669,0,0,1-.953-1.425,7.558,7.558,0,0,1-.245-2.1,7.382,7.382,0,0,1,.245-2.082,2.734,2.734,0,0,1,.961-1.417,2.548,2.548,0,0,1,1.592-.506,2.6,2.6,0,0,1,1.627.506,2.7,2.7,0,0,1,.961,1.417,7.768,7.768,0,0,1,.228,2.082,7.921,7.921,0,0,1-.246,2.1,2.786,2.786,0,0,1-.961,1.425,2.563,2.563,0,0,1-1.566.5m12.292,1.854a5.183,5.183,0,0,0,2.93-.823,3.777,3.777,0,0,0,1.635-2.194c.062-.219.1-.359.114-.42a.313.313,0,0,0-.289-.359l-1.46-.245a.271.271,0,0,0-.245.079.349.349,0,0,0-.131.21v.017l-.027.1a2.253,2.253,0,0,1-.891,1.285,2.752,2.752,0,0,1-1.653.5,2.582,2.582,0,0,1-1.617-.508,2.511,2.511,0,0,1-.892-1.416,9.141,9.141,0,0,1-.2-2.1,9.354,9.354,0,0,1,.2-2.126,2.372,2.372,0,0,1,.874-1.363,2.611,2.611,0,0,1,1.635-.517,2.718,2.718,0,0,1,1.671.517,2.145,2.145,0,0,1,.873,1.276l.071.289a.294.294,0,0,0,.313.245h.061l1.461-.2a.292.292,0,0,0,.289-.315v-.044a2.657,2.657,0,0,0-.158-.63,3.9,3.9,0,0,0-1.635-2.142,5.06,5.06,0,0,0-2.93-.847,4.917,4.917,0,0,0-2.894.847,4.24,4.24,0,0,0-1.659,2.282,9.64,9.64,0,0,0-.342,2.7,8.834,8.834,0,0,0,.342,2.71,4.3,4.3,0,0,0,1.652,2.335,4.851,4.851,0,0,0,2.9.856m8.456-13.255a1.432,1.432,0,0,0,1.049-.392,1.331,1.331,0,0,0,.4-1.016,1.374,1.374,0,0,0-.4-1.023,1.465,1.465,0,0,0-1.049-.385,1.526,1.526,0,0,0-1.067.385,1.38,1.38,0,0,0-.411,1.023,1.336,1.336,0,0,0,.411,1.016,1.491,1.491,0,0,0,1.067.392m-.743,13.08h1.478a.348.348,0,0,0,.254-.087.367.367,0,0,0,.087-.245V20.251a.347.347,0,0,0-.087-.245.354.354,0,0,0-.254-.1h-1.478a.335.335,0,0,0-.244.1.342.342,0,0,0-.088.245V30.962a.361.361,0,0,0,.088.245.341.341,0,0,0,.244.087m9.286-11.558a5.447,5.447,0,0,0-3.052.812,3.021,3.021,0,0,0-1.443,2.089.2.2,0,0,0,.061.193.518.518,0,0,0,.255.1l1.607.2a.337.337,0,0,0,.376-.271,1.6,1.6,0,0,1,.753-.944,2.944,2.944,0,0,1,1.487-.332,2.4,2.4,0,0,1,1.729.551,2.005,2.005,0,0,1,.57,1.53v.585c0,.07-.035.1-.114.1h-2.474a5.275,5.275,0,0,0-3.42,1,3.361,3.361,0,0,0-1.215,2.737,3.074,3.074,0,0,0,1.049,2.544,4.187,4.187,0,0,0,2.685.83,5.642,5.642,0,0,0,1.87-.306,4.421,4.421,0,0,0,1.486-.9.072.072,0,0,1,.088-.018.082.082,0,0,1,.044.087v.63a.335.335,0,0,0,.1.246.317.317,0,0,0,.246.087h1.466a.314.314,0,0,0,.246-.087.3.3,0,0,0,.1-.246V23.512a3.574,3.574,0,0,0-.552-1.958,3.672,3.672,0,0,0-1.563-1.337,5.443,5.443,0,0,0-2.378-.482m-.6,9.925a2.575,2.575,0,0,1-1.53-.42,1.431,1.431,0,0,1-.595-1.251,1.621,1.621,0,0,1,.786-1.434,3.767,3.767,0,0,1,2.1-.516h2.072c.079,0,.114.035.114.114v1.294a1.866,1.866,0,0,1-.883,1.591,3.508,3.508,0,0,1-2.063.622m13.439-8.316V20.251a.316.316,0,0,0-.1-.245.312.312,0,0,0-.245-.1h-2.282a.092.092,0,0,1-.1-.1V17.3a.358.358,0,0,0-.088-.245.342.342,0,0,0-.254-.088h-1.381a.32.32,0,0,0-.245.088.33.33,0,0,0-.1.245V19.8a.093.093,0,0,1-.1.1h-1.233a.324.324,0,0,0-.243.1.312.312,0,0,0-.088.245v1.092a.307.307,0,0,0,.088.245.319.319,0,0,0,.243.088h1.233c.07,0,.1.043.1.114v6.618a2.591,2.591,0,0,0,.857,2.256,4.378,4.378,0,0,0,2.571.611l.908-.026a.334.334,0,0,0,.342-.359V29.729a.325.325,0,0,0-.088-.246.352.352,0,0,0-.254-.087h-.532a1.876,1.876,0,0,1-1.33-.4,1.852,1.852,0,0,1-.409-1.364V21.79c0-.07.034-.114.1-.114h2.282a.308.308,0,0,0,.245-.088.316.316,0,0,0,.1-.245m3.89-3.129a1.448,1.448,0,0,0,1.051-.394,1.364,1.364,0,0,0,.4-1.014,1.413,1.413,0,0,0-.4-1.023,1.486,1.486,0,0,0-1.051-.385,1.53,1.53,0,0,0-1.067.385,1.377,1.377,0,0,0-.409,1.023,1.331,1.331,0,0,0,.409,1.014,1.49,1.49,0,0,0,1.067.394m-.743,13.08h1.478a.323.323,0,0,0,.245-.088.33.33,0,0,0,.1-.245V20.251a.316.316,0,0,0-.1-.245.323.323,0,0,0-.245-.1h-1.478a.339.339,0,0,0-.244.1.307.307,0,0,0-.088.245v10.71a.32.32,0,0,0,.088.245.336.336,0,0,0,.244.088m9.776.175a4.814,4.814,0,0,0,2.834-.83,4.47,4.47,0,0,0,1.7-2.343,8.753,8.753,0,0,0,.4-2.746,8.272,8.272,0,0,0-.4-2.684,4.59,4.59,0,0,0-1.715-2.291,4.748,4.748,0,0,0-2.806-.839,5.088,5.088,0,0,0-2.93.839,4.479,4.479,0,0,0-1.723,2.308,8.312,8.312,0,0,0-.374,2.685,8.542,8.542,0,0,0,.4,2.728A4.424,4.424,0,0,0,250,30.638a4.969,4.969,0,0,0,2.894.83m0-1.854a2.549,2.549,0,0,1-2.6-1.924,7.28,7.28,0,0,1-.244-2.1,7.113,7.113,0,0,1,.244-2.082,2.727,2.727,0,0,1,.962-1.416,2.549,2.549,0,0,1,1.592-.508,2.6,2.6,0,0,1,1.626.508,2.712,2.712,0,0,1,.962,1.416,8.163,8.163,0,0,1,.227,2.082,7.925,7.925,0,0,1-.245,2.1,2.78,2.78,0,0,1-.962,1.425,2.55,2.55,0,0,1-1.565.5M265.7,19.762a3.373,3.373,0,0,0-2.816,1.18c-.018.035-.034.035-.07.026a.114.114,0,0,1-.044-.1v-.62a.347.347,0,0,0-.085-.245.33.33,0,0,0-.246-.1H260.96a.317.317,0,0,0-.246.1.311.311,0,0,0-.087.245v10.71a.324.324,0,0,0,.087.245.317.317,0,0,0,.246.088h1.477a.33.33,0,0,0,.246-.088.363.363,0,0,0,.085-.245v-7.25a2.324,2.324,0,0,1,.771-1.53,2.377,2.377,0,0,1,1.618-.569,2.252,2.252,0,0,1,1.73.692,2.559,2.559,0,0,1,.648,1.81V30.96a.319.319,0,0,0,.087.245.327.327,0,0,0,.245.088h1.477a.306.306,0,0,0,.334-.333V23.694a3.865,3.865,0,0,0-1.076-2.877,3.923,3.923,0,0,0-2.9-1.057" transform="translate(33.426 3.899)" fill="#fff"/>
  <path id="path4136" d="M95.358,99.117h1.635V.878H95.358Z" transform="translate(27.52 -0.388)" fill="#fff"/>
  <path id="path4138" d="M12.631,12.714l-.8-.786L9.693,14.3c.953-.569,1.933-1.093,2.938-1.583" transform="translate(2.223 2.875)" fill="#fff"/>
  <path id="path4140" d="M21.1,11.055l-2.8-4.223L14.844,9.341,16.951,12a37.743,37.743,0,0,1,4.153-.944" transform="translate(3.745 1.37)" fill="#fff"/>
  <path id="path4142" d="M25.421,11.6c1.18,0,2.343.061,3.49.166L25.5,3.132,21.6,4.873l3.356,6.741c.158,0,.315-.009.464-.009" transform="translate(5.74 0.277)" fill="#fff"/>
  <path id="path4144" d="M35.517,14.309,33.279.993,29.1,1.875l2.946,11.41c1.172.289,2.335.62,3.471,1.023" transform="translate(7.954 -0.354)" fill="#fff"/>
  <path id="path4146" d="M40.541,17.926,41.283.5H37.018L37.7,16.352c.97.49,1.914,1.005,2.842,1.574" transform="translate(10.292 -0.5)" fill="#fff"/>
  <path id="path4148" d="M44.691,22.136,49.919,1.877,45.741.986l-3.236,19.3c.753.595,1.487,1.206,2.186,1.854" transform="translate(11.913 -0.356)" fill="#fff"/>
  <path id="path4150" d="M47.9,26.206,58.519,4.873,54.611,3.132,46.278,24.256c.569.63,1.1,1.277,1.618,1.951" transform="translate(13.027 0.277)" fill="#fff"/>
  <path id="path4152" d="M50.191,29.8,66.453,9.349,62.991,6.832,49.046,27.884c.4.63.786,1.268,1.145,1.916" transform="translate(13.844 1.37)" fill="#fff"/>
  <path id="path4154" d="M51.778,32.842l21.5-17.74-2.859-3.173L50.99,31c.28.6.543,1.224.788,1.846" transform="translate(14.418 2.875)" fill="#fff"/>
  <path id="path4156" d="M52.814,35.346,78.615,21.9l-2.142-3.708L52.306,33.571c.184.585.35,1.18.508,1.775" transform="translate(14.807 4.724)" fill="#fff"/>
  <path id="path4158" d="M53.4,37.417l28.774-7.991-1.32-4.066L53.116,35.712q.171.853.289,1.7" transform="translate(15.046 6.841)" fill="#fff"/>
  <path id="path4160" d="M53.622,39.222l30.147-1.863-.446-4.25L53.535,37.542c.043.56.07,1.12.087,1.68" transform="translate(15.17 9.129)" fill="#fff"/>
  <path id="path4162" d="M53.622,39.67c-.017.561-.044,1.119-.087,1.671l29.788,4.442.446-4.25Z" transform="translate(15.17 11.067)" fill="#fff"/>
  <path id="path4164" d="M53.4,42.822c-.079.579-.175,1.145-.289,1.715L80.859,54.889l1.32-4.066Z" transform="translate(15.046 11.998)" fill="#fff"/>
  <path id="path4166" d="M52.814,46.063c-.158.595-.324,1.188-.508,1.775L76.472,63.217l2.142-3.707Z" transform="translate(14.807 12.955)" fill="#fff"/>
  <path id="path4168" d="M51.778,49.417c-.245.63-.508,1.25-.788,1.855L70.409,70.339l2.868-3.172Z" transform="translate(14.418 13.945)" fill="#fff"/>
  <path id="path4170" d="M50.191,52.927c-.359.657-.743,1.3-1.145,1.924L62.991,75.9l3.462-2.518Z" transform="translate(13.844 14.982)" fill="#fff"/>
  <path id="path4172" d="M47.9,56.552c-.516.664-1.049,1.32-1.618,1.951l8.333,21.122,3.908-1.74Z" transform="translate(13.027 16.052)" fill="#fff"/>
  <g id="Group_1130" data-name="Group 1130" transform="translate(54.357 76.014)">
    <g id="Group_1129" data-name="Group 1129" clip-path="url(#clip-path-2)">
      <g id="g4176" transform="translate(0.061 1.295)">
        <path id="path4174" d="M42.505,62.036l3.236,19.288,4.179-.892L44.691,60.184c-.7.646-1.434,1.258-2.186,1.852" transform="translate(-42.505 -60.184)" fill="#fff"/>
      </g>
    </g>
  </g>
  <g id="Group_1132" data-name="Group 1132" transform="translate(45.404 80.491)">
    <g id="Group_1131" data-name="Group 1131" clip-path="url(#clip-path-3)">
      <g id="g4180" transform="translate(1.898 1.171)">
        <path id="path4178" d="M37.7,65.119l-.69,15.851h4.284l-.76-17.424c-.918.567-1.863,1.084-2.833,1.574" transform="translate(-37.011 -63.545)" fill="#fff"/>
      </g>
    </g>
  </g>
  <path id="path4182" d="M32.046,67.248,29.1,78.657l4.179.883,2.238-13.316c-1.136.392-2.29.734-3.471,1.023" transform="translate(7.954 18.908)" fill="#fff"/>
  <path id="path4184" d="M25.421,67.862c-.149,0-.306-.009-.464-.009L21.6,74.595l3.9,1.74L28.91,67.7c-1.146.1-2.31.166-3.49.166" transform="translate(5.74 19.343)" fill="#fff"/>
  <path id="path4186" d="M16.951,66.677l-2.107,2.649,3.462,2.518,2.8-4.224a36.037,36.037,0,0,1-4.153-.943" transform="translate(3.745 19.042)" fill="#fff"/>
  <path id="path4188" d="M9.693,63.741l2.133,2.368.8-.786c-1.005-.481-1.984-1.013-2.938-1.582" transform="translate(2.223 18.175)" fill="#fff"/>
  <path id="path4190" d="M68.1,14.147l-1.565-1.74-.585.56c.725.376,1.443.76,2.15,1.18" transform="translate(18.835 3.016)" fill="#fff"/>
  <path id="path4192" d="M60.786,11.652,63.024,8.74l-2.1-1.531L58.26,11.083c.856.166,1.7.35,2.526.569" transform="translate(16.565 1.481)" fill="#fff"/>
  <path id="path4194" d="M53.057,11.536l3.374-7.083L54.063,3.4l-3.411,8.245c.8-.062,1.592-.1,2.405-.1" transform="translate(14.319 0.355)" fill="#fff"/>
  <path id="path4196" d="M45.874,13.421,48.7,1.662l-2.536-.535-2.4,12.915c.7-.219,1.4-.429,2.106-.622" transform="translate(12.286 -0.315)" fill="#fff"/>
  <path id="path4198" d="M39.815,16.658,40.244.5h-2.6l.455,17.11c.567-.332,1.136-.646,1.721-.952" transform="translate(10.476 -0.5)" fill="#fff"/>
  <path id="path4200" d="M35.862,20.608,32.251,1.127l-2.544.535,4.826,20.075c.429-.386.874-.762,1.329-1.128" transform="translate(8.134 -0.315)" fill="#fff"/>
  <path id="path4202" d="M33.316,24.572,24.537,3.4l-2.37,1.057,10.16,21.3c.324-.4.648-.8.988-1.18" transform="translate(5.907 0.355)" fill="#fff"/>
  <path id="path4204" d="M31.84,28.156,17.448,7.216l-2.1,1.522,15.8,20.59c.228-.394.455-.786.692-1.172" transform="translate(3.894 1.483)" fill="#fff"/>
  <path id="path4206" d="M31.114,31.23,11.285,12.407l-1.74,1.931L30.634,32.351c.158-.376.315-.753.481-1.12" transform="translate(2.18 3.016)" fill="#fff"/>
  <path id="path4208" d="M30.808,33.764,6.318,18.752l-1.3,2.255L30.5,34.84c.1-.359.2-.718.306-1.075" transform="translate(0.842 4.89)" fill="#fff"/>
  <path id="path4210" d="M30.708,35.871l-27.953-9.9-.8,2.465L30.524,36.9c.053-.342.123-.69.184-1.032" transform="translate(-0.063 7.023)" fill="#fff"/>
  <g id="Group_1134" data-name="Group 1134" transform="translate(0 42.44)">
    <g id="Group_1133" data-name="Group 1133" clip-path="url(#clip-path-4)">
      <g id="g4214" transform="translate(0.009 0.63)">
        <path id="path4212" d="M30.63,37.685.771,33.751.5,36.339,30.577,38.7c.009-.333.035-.674.053-1.014" transform="translate(-0.5 -33.751)" fill="#fff"/>
      </g>
    </g>
  </g>
  <path id="path4216" d="M30.577,39.92.5,42.289l.271,2.579L30.63,40.943c-.018-.342-.044-.683-.053-1.023" transform="translate(-0.491 11.141)" fill="#fff"/>
  <path id="path4218" d="M30.524,43.086,1.951,51.539l.8,2.475,27.953-9.9c-.061-.35-.131-.69-.184-1.031" transform="translate(-0.063 12.076)" fill="#fff"/>
  <path id="path4220" d="M30.5,46.325,5.016,60.159l1.3,2.246,24.49-15c-.1-.356-.21-.715-.306-1.075" transform="translate(0.842 13.032)" fill="#fff"/>
  <path id="path4222" d="M30.634,49.694,9.545,67.705l1.74,1.933,19.83-18.825c-.166-.368-.323-.743-.481-1.119" transform="translate(2.18 14.027)" fill="#fff"/>
  <path id="path4224" d="M31.149,53.211,15.35,73.8l2.1,1.522L31.84,54.382c-.237-.385-.464-.777-.692-1.171" transform="translate(3.894 15.065)" fill="#fff"/>
  <path id="path4226" d="M32.327,56.843l-10.16,21.3,2.378,1.06,8.77-21.178c-.341-.385-.664-.777-.988-1.179" transform="translate(5.907 16.138)" fill="#fff"/>
  <path id="path4228" d="M34.533,60.46,29.707,80.535l2.544.534,3.611-19.48c-.455-.367-.891-.743-1.329-1.128" transform="translate(8.134 17.206)" fill="#fff"/>
  <path id="path4230" d="M38.094,63.788,37.639,80.9h2.6l-.42-16.158c-.585-.3-1.163-.62-1.721-.952" transform="translate(10.476 18.189)" fill="#fff"/>
  <path id="path4232" d="M43.768,66.4l2.4,12.914,2.536-.541L45.874,67.022c-.707-.185-1.407-.4-2.106-.622" transform="translate(12.286 18.96)" fill="#fff"/>
  <path id="path4234" d="M50.652,67.737l3.411,8.246,2.369-1.06-3.374-7.083c-.8-.008-1.609-.043-2.405-.1" transform="translate(14.319 19.355)" fill="#fff"/>
  <path id="path4236" d="M58.267,67.429l2.657,3.864,2.1-1.522-2.238-2.918c-.83.227-1.67.411-2.517.576" transform="translate(16.567 19.094)" fill="#fff"/>
  <path id="path4238" d="M65.948,64.928l.585.56,1.557-1.741c-.7.42-1.417.8-2.142,1.181" transform="translate(18.835 18.177)" fill="#fff"/>
</svg>
