<svg xmlns="http://www.w3.org/2000/svg" width="33" height="33" viewBox="0 0 33 33">
  <g id="Group_1227" data-name="Group 1227" transform="translate(0)">
    <circle id="Ellipse_16" data-name="Ellipse 16" cx="16.5" cy="16.5" r="16.5" transform="translate(0)" fill="#005479"/>
    <path id="Icon_awesome-phone-alt" data-name="Icon awesome-phone-alt" d="M15.214,11.067,11.788,9.6a.734.734,0,0,0-.856.211L9.415,11.663a11.338,11.338,0,0,1-5.42-5.42L5.848,4.726a.732.732,0,0,0,.211-.856L4.591.444A.739.739,0,0,0,3.75.019L.569.753A.734.734,0,0,0,0,1.468,14.191,14.191,0,0,0,14.193,15.661a.734.734,0,0,0,.716-.569l.734-3.181a.743.743,0,0,0-.429-.844Z" transform="translate(8.589 8.67)" fill="#fff"/>
  </g>
</svg>
