<svg xmlns="http://www.w3.org/2000/svg" width="20" height="18" viewBox="0 0 20 18">
  <g id="Icon_material-photo-camera" data-name="Icon material-photo-camera" transform="translate(-3 -3)">
    <path id="Path_1738" data-name="Path 1738" d="M19.6,16.4a3.2,3.2,0,1,1-3.2-3.2A3.2,3.2,0,0,1,19.6,16.4Z" transform="translate(-3.4 -3.4)" fill="#fff"/>
    <path id="Path_1739" data-name="Path 1739" d="M10,3,8.17,5H5A2.006,2.006,0,0,0,3,7V19a2.006,2.006,0,0,0,2,2H21a2.006,2.006,0,0,0,2-2V7a2.006,2.006,0,0,0-2-2H17.83L16,3Zm3,15a5,5,0,1,1,5-5A5,5,0,0,1,13,18Z" fill="#fff"/>
  </g>
</svg>
