<svg xmlns="http://www.w3.org/2000/svg" width="32" height="33" viewBox="0 0 32 33">
  <g id="Group_1323" data-name="Group 1323" transform="translate(-0.322 0.214)">
    <ellipse id="Ellipse_16" data-name="Ellipse 16" cx="16" cy="16.5" rx="16" ry="16.5" transform="translate(0.322 -0.214)" opacity="0.2"/>
    <path id="Icon_awesome-pencil-alt" data-name="Icon awesome-pencil-alt" d="M13.339,3.81,12.1,5.045a.322.322,0,0,1-.455,0L8.675,2.071a.322.322,0,0,1,0-.455L9.91.381a1.289,1.289,0,0,1,1.819,0l1.61,1.61A1.284,1.284,0,0,1,13.339,3.81ZM7.614,2.677.58,9.711.012,12.966a.644.644,0,0,0,.745.745l3.255-.571,7.035-7.035a.322.322,0,0,0,0-.455L8.072,2.677a.325.325,0,0,0-.458,0ZM3.325,9.109a.373.373,0,0,1,0-.53L7.451,4.453a.375.375,0,0,1,.53.53L3.856,9.109a.373.373,0,0,1-.53,0Zm-.967,2.253H3.644v.972l-1.728.3L1.083,11.8l.3-1.728h.972Z" transform="translate(9.92 9.774)" fill="#fff"/>
  </g>
</svg>
