<svg xmlns="http://www.w3.org/2000/svg" width="10.507" height="10.506" viewBox="0 0 10.507 10.506">
  <path id="Path_673" data-name="Path 673" d="M417.487,83.084a1.753,1.753,0,1,0,1.752,1.753A1.757,1.757,0,0,0,417.487,83.084Zm5.255,1.753c0-.726.006-1.445-.035-2.169a2.906,2.906,0,0,0-3.049-3.049c-.726-.041-1.445-.035-2.169-.035s-1.444-.006-2.169.035a2.906,2.906,0,0,0-3.049,3.049c-.041.726-.035,1.444-.035,2.169s-.006,1.445.035,2.169a2.906,2.906,0,0,0,3.049,3.049c.726.041,1.445.035,2.169.035s1.445.006,2.169-.035A2.907,2.907,0,0,0,422.707,87C422.751,86.281,422.742,85.563,422.742,84.836Zm-5.255,2.7a2.7,2.7,0,1,1,2.7-2.7A2.693,2.693,0,0,1,417.487,87.532Zm2.807-4.873a.63.63,0,1,1,.63-.63.629.629,0,0,1-.63.63Z" transform="translate(-412.236 -79.583)" fill="#a065a0"/>
</svg>
