<svg id="Group_1254" data-name="Group 1254" xmlns="http://www.w3.org/2000/svg" width="50.59" height="50.59" viewBox="0 0 50.59 50.59">
  <rect id="Rectangle_33" data-name="Rectangle 33" width="50.59" height="50.59" rx="25" fill="#fff"/>
  <path id="Path_673" data-name="Path 673" d="M424.312,87.633a4.03,4.03,0,1,0,4.029,4.03A4.04,4.04,0,0,0,424.312,87.633Zm12.084,4.03c0-1.67.014-3.322-.08-4.987a6.683,6.683,0,0,0-7.012-7.012c-1.67-.093-3.322-.079-4.988-.079s-3.321-.014-4.987.079a6.682,6.682,0,0,0-7.012,7.012c-.094,1.67-.08,3.321-.08,4.987s-.014,3.322.08,4.987a6.683,6.683,0,0,0,7.012,7.012c1.67.094,3.322.079,4.987.079s3.322.015,4.988-.079a6.684,6.684,0,0,0,7.012-7.012C436.415,94.985,436.4,93.334,436.4,91.663Zm-12.084,6.2a6.2,6.2,0,1,1,6.2-6.2A6.193,6.193,0,0,1,424.312,97.863Zm6.455-11.207a1.448,1.448,0,1,1,1.448-1.449,1.446,1.446,0,0,1-1.448,1.449Z" transform="translate(-397.881 -65.785)" fill="#a065a0"/>
</svg>
