<svg xmlns="http://www.w3.org/2000/svg" width="327" height="122" viewBox="0 0 327 122">
  <g id="Group_1246" data-name="Group 1246" transform="translate(19346 21689.016)">
    <rect id="Rectangle_548" data-name="Rectangle 548" width="327" height="122" transform="translate(-19346 -21689.016)" fill="#fccf14"/>
    <g id="Group_1107" data-name="Group 1107" transform="translate(-19326.371 -21674.211)">
      <path id="Path_878" data-name="Path 878" d="M659.416,256.563l-38.254-22.085v-44.17l38.254-22.085,38.251,22.085v44.17Zm-29.272-27.27,29.272,16.9,29.271-16.9v-33.8l-29.271-16.9-29.272,16.9Z" transform="translate(-621.162 -168.224)"/>
      <g id="Group_1099" data-name="Group 1099" transform="translate(21.117 19.577)">
        <path id="Path_879" data-name="Path 879" d="M657.855,206.866l-.949-2.683h-7.125l-.976,2.683h-6.449l8.02-18.994h6.449l7.722,18.994Zm-6.45-7.181h3.957l-1.951-5.555Z" transform="translate(-642.356 -187.872)"/>
        <path id="Path_880" data-name="Path 880" d="M675.6,196.068v3.794H671.26V204.2h-3.793v-4.334h-4.335v-3.794h4.335v-4.335h3.793v4.335Z" transform="translate(-642.432 -187.886)"/>
      </g>
      <g id="Group_1100" data-name="Group 1100" transform="translate(22.566 40.616)">
        <path id="Path_881" data-name="Path 881" d="M646.765,212.543l-.354-.815h-1.768l-.35.815h-.484l1.49-3.353h.478l1.485,3.353Zm-1.939-1.231h1.408l-.709-1.628Z" transform="translate(-643.81 -208.989)"/>
        <path id="Path_882" data-name="Path 882" d="M648.646,210.395a.876.876,0,0,0-.442.111.8.8,0,0,0-.3.311,1.049,1.049,0,0,0,0,.93.792.792,0,0,0,.3.314.836.836,0,0,0,.433.113,1.145,1.145,0,0,0,.44-.082.839.839,0,0,0,.326-.235l.254.259a1.125,1.125,0,0,1-.437.331,1.508,1.508,0,0,1-.6.115,1.307,1.307,0,0,1-.657-.162,1.152,1.152,0,0,1-.447-.453,1.337,1.337,0,0,1-.16-.663,1.358,1.358,0,0,1,.16-.667,1.148,1.148,0,0,1,.447-.454,1.308,1.308,0,0,1,.657-.163,1.6,1.6,0,0,1,.577.1,1.121,1.121,0,0,1,.428.285l-.244.307A1,1,0,0,0,648.646,210.395Z" transform="translate(-643.823 -208.992)"/>
        <path id="Path_883" data-name="Path 883" d="M651.237,210.395a.876.876,0,0,0-.442.111.788.788,0,0,0-.3.311.96.96,0,0,0-.11.465.97.97,0,0,0,.108.464.784.784,0,0,0,.3.314.836.836,0,0,0,.433.113,1.146,1.146,0,0,0,.44-.082.84.84,0,0,0,.326-.235l.254.259a1.124,1.124,0,0,1-.437.331,1.507,1.507,0,0,1-.6.115,1.307,1.307,0,0,1-.657-.162,1.145,1.145,0,0,1-.447-.453,1.336,1.336,0,0,1-.16-.663,1.357,1.357,0,0,1,.16-.667,1.141,1.141,0,0,1,.447-.454A1.308,1.308,0,0,1,651.2,210a1.6,1.6,0,0,1,.577.1,1.12,1.12,0,0,1,.429.285l-.244.307A1,1,0,0,0,651.237,210.395Z" transform="translate(-643.832 -208.992)"/>
        <path id="Path_884" data-name="Path 884" d="M653.686,210.143a1.056,1.056,0,0,1,.546-.146v.431a.815.815,0,0,0-.9.78v1.337h-.444v-2.534h.444v.546A.917.917,0,0,1,653.686,210.143Z" transform="translate(-643.843 -208.992)"/>
        <path id="Path_885" data-name="Path 885" d="M656.628,210.345a1.423,1.423,0,0,1,.3.965c0,.063,0,.112,0,.142h-2a.866.866,0,0,0,.285.542.845.845,0,0,0,.572.2,1.068,1.068,0,0,0,.42-.082,1.013,1.013,0,0,0,.338-.23l.244.254a1.257,1.257,0,0,1-.45.311,1.5,1.5,0,0,1-.584.111,1.338,1.338,0,0,1-.664-.16,1.125,1.125,0,0,1-.45-.452,1.457,1.457,0,0,1,0-1.329,1.17,1.17,0,0,1,.447-.455,1.3,1.3,0,0,1,.657-.165A1.113,1.113,0,0,1,656.628,210.345Zm-.1.764a.732.732,0,0,0-.785-.742.806.806,0,0,0-.559.2.85.85,0,0,0-.265.542Z" transform="translate(-643.849 -208.992)"/>
        <path id="Path_886" data-name="Path 886" d="M659.909,208.988v3.554h-.444v-.5a1.012,1.012,0,0,1-.387.391,1.126,1.126,0,0,1-.563.137,1.209,1.209,0,0,1-.634-.165,1.139,1.139,0,0,1-.429-.46,1.44,1.44,0,0,1-.152-.673,1.4,1.4,0,0,1,.152-.664,1.131,1.131,0,0,1,.429-.452,1.207,1.207,0,0,1,.63-.162,1.175,1.175,0,0,1,.57.134.966.966,0,0,1,.384.389v-1.523Zm-.859,3.08a.8.8,0,0,0,.3-.321,1.035,1.035,0,0,0,0-.935.81.81,0,0,0-.3-.321.854.854,0,0,0-.443-.115.844.844,0,0,0-.443.117.82.82,0,0,0-.3.324,1.031,1.031,0,0,0,0,.93.8.8,0,0,0,.3.321.915.915,0,0,0,.887,0Z" transform="translate(-643.859 -208.988)"/>
        <path id="Path_887" data-name="Path 887" d="M661.236,209.079a.307.307,0,0,1,0,.412.284.284,0,0,1-.4,0,.309.309,0,0,1,0-.412.284.284,0,0,1,.4,0Zm-.418.93h.445v2.534h-.445Z" transform="translate(-643.872 -208.988)"/>
        <path id="Path_888" data-name="Path 888" d="M663.494,212.375a1.09,1.09,0,0,1-.594.187.675.675,0,0,1-.488-.179.723.723,0,0,1-.186-.544v-1.4h-.36V210.1h.36v-.68h.449v.68h.776v.341h-.776v1.321a.472.472,0,0,0,.077.3.284.284,0,0,0,.229.092.806.806,0,0,0,.394-.12Z" transform="translate(-643.876 -208.99)"/>
        <path id="Path_889" data-name="Path 889" d="M665.915,210.345a1.422,1.422,0,0,1,.3.965c0,.063,0,.112,0,.142h-2a.866.866,0,0,0,.285.542.845.845,0,0,0,.572.2,1.064,1.064,0,0,0,.419-.082,1.012,1.012,0,0,0,.338-.23l.244.254a1.258,1.258,0,0,1-.45.311,1.494,1.494,0,0,1-.584.111,1.338,1.338,0,0,1-.664-.16,1.125,1.125,0,0,1-.45-.452,1.457,1.457,0,0,1,0-1.329,1.17,1.17,0,0,1,.447-.455,1.3,1.3,0,0,1,.657-.165A1.113,1.113,0,0,1,665.915,210.345Zm-.1.764a.733.733,0,0,0-.785-.742.8.8,0,0,0-.558.2.847.847,0,0,0-.266.542Z" transform="translate(-643.882 -208.992)"/>
        <path id="Path_890" data-name="Path 890" d="M669.2,208.988v3.554h-.444v-.5a1.011,1.011,0,0,1-.387.391,1.125,1.125,0,0,1-.562.137,1.21,1.21,0,0,1-.635-.165,1.14,1.14,0,0,1-.429-.46,1.442,1.442,0,0,1-.153-.673,1.4,1.4,0,0,1,.153-.664,1.132,1.132,0,0,1,.429-.452,1.207,1.207,0,0,1,.63-.162,1.174,1.174,0,0,1,.57.134.966.966,0,0,1,.384.389v-1.523Zm-.859,3.08a.8.8,0,0,0,.3-.321.958.958,0,0,0,.112-.464.968.968,0,0,0-.112-.47.8.8,0,0,0-.3-.321.854.854,0,0,0-.443-.115.845.845,0,0,0-.443.117.828.828,0,0,0-.3.324,1.033,1.033,0,0,0,0,.93.806.806,0,0,0,.3.321.915.915,0,0,0,.887,0Z" transform="translate(-643.893 -208.988)"/>
        <path id="Path_891" data-name="Path 891" d="M673.4,210.157a1.12,1.12,0,0,1,.431.454,1.54,1.54,0,0,1,0,1.334,1.107,1.107,0,0,1-.427.45,1.227,1.227,0,0,1-.631.16,1.164,1.164,0,0,1-.565-.134.964.964,0,0,1-.383-.384v.5h-.445v-3.554h.445v1.523a.965.965,0,0,1,.381-.384,1.126,1.126,0,0,1,.557-.135A1.224,1.224,0,0,1,673.4,210.157Zm-.28,1.9a.8.8,0,0,0,.3-.322.986.986,0,0,0,.108-.464.962.962,0,0,0-.11-.459.815.815,0,0,0-.3-.321.885.885,0,0,0-.875,0,.793.793,0,0,0-.3.321.952.952,0,0,0-.11.459.967.967,0,0,0,.11.467.814.814,0,0,0,.3.319.9.9,0,0,0,.877,0Z" transform="translate(-643.91 -208.988)"/>
        <path id="Path_892" data-name="Path 892" d="M675.1,213.345a.755.755,0,0,1-.466.148.836.836,0,0,1-.556-.2l.19-.351a.581.581,0,0,0,.341.121.462.462,0,0,0,.431-.326l.1-.225-1.049-2.5h.469l.805,2.031.761-2.031h.455l-1.159,2.892A1.006,1.006,0,0,1,675.1,213.345Z" transform="translate(-643.92 -208.992)"/>
      </g>
      <g id="Group_1106" data-name="Group 1106" transform="translate(13.173 46.864)">
        <g id="Group_1105" data-name="Group 1105">
          <g id="Group_1101" data-name="Group 1101" transform="translate(29.187 6.907)">
            <path id="Path_893" data-name="Path 893" d="M663.677,224.646h1.748l-.862-2.455Z" transform="translate(-663.677 -222.191)"/>
          </g>
          <g id="Group_1103" data-name="Group 1103">
            <g id="Group_1102" data-name="Group 1102">
              <path id="Path_894" data-name="Path 894" d="M634.383,215.259v11.785l25.081,14.481,25.081-14.48V215.259Zm32.037,12.534L666,226.608h-3.149l-.431,1.186h-4.969l-.419-1.186h-3.148l-.431,1.186H648.4l-3.305-4.286v4.286h-2.526V219.4h2.323l3.317,4.31V219.4h2.514v8.11l3.424-8.11H657l3,7.383,3.118-7.383h2.85l3.413,8.393Zm5.251-3.226a1.755,1.755,0,0,0,.623.724,1.591,1.591,0,0,0,.892.263,2.141,2.141,0,0,0,.976-.269,3.319,3.319,0,0,0,.928-.713l1.605,1.713a5.26,5.26,0,0,1-1.7,1.24,4.626,4.626,0,0,1-4.238-.108,4.088,4.088,0,0,1-1.586-1.581,4.5,4.5,0,0,1-.575-2.269,4.294,4.294,0,0,1,.586-2.233,4.169,4.169,0,0,1,1.622-1.551,4.835,4.835,0,0,1,2.341-.562,5.042,5.042,0,0,1,3.545,1.556l-1.605,1.9a3.051,3.051,0,0,0-.892-.832,1.943,1.943,0,0,0-1.012-.318,1.611,1.611,0,0,0-.892.258,1.713,1.713,0,0,0-.623.711,2.314,2.314,0,0,0-.221,1.03A2.352,2.352,0,0,0,671.671,224.567Z" transform="translate(-634.383 -215.259)"/>
            </g>
          </g>
          <g id="Group_1104" data-name="Group 1104" transform="translate(20.219 6.907)">
            <path id="Path_895" data-name="Path 895" d="M654.676,224.646h1.749l-.862-2.455Z" transform="translate(-654.676 -222.191)"/>
          </g>
        </g>
      </g>
      <text id="_A_ACCREDITATION_THIRD_CYCLE_BY_NAAC_IN_2017" data-name="‘A+’ ACCREDITATION
(THIRD CYCLE)
BY &apos;NAAC&apos; IN 2017" transform="translate(88.57 29.784)" font-size="18" font-family="Montserrat-Regular, Montserrat"><tspan x="0" y="0">‘A+’ ACCREDITATION</tspan><tspan x="0" y="19">(THIRD CYCLE)</tspan><tspan x="0" y="38">BY &apos;NAAC&apos; IN 2017</tspan></text>
    </g>
  </g>
</svg>
