<svg xmlns="http://www.w3.org/2000/svg" width="32" height="33" viewBox="0 0 32 33">
  <g id="Group_1321" data-name="Group 1321" transform="translate(-0.322 -0.43)">
    <ellipse id="Ellipse_16" data-name="Ellipse 16" cx="16" cy="16.5" rx="16" ry="16.5" transform="translate(0.322 0.43)" opacity="0.2"/>
    <path id="Icon_awesome-phone-alt" data-name="Icon awesome-phone-alt" d="M15.2,11.054,11.775,9.588a.733.733,0,0,0-.855.211L9.4,11.65A11.325,11.325,0,0,1,3.99,6.236L5.842,4.721a.731.731,0,0,0,.211-.855L4.586.444a.738.738,0,0,0-.84-.425L.568.752A.733.733,0,0,0,0,1.467,14.175,14.175,0,0,0,14.177,15.643a.733.733,0,0,0,.715-.568l.733-3.178a.742.742,0,0,0-.428-.843Z" transform="translate(8.513 8.174)" fill="#fff"/>
  </g>
</svg>
