<svg xmlns="http://www.w3.org/2000/svg" xmlns:xlink="http://www.w3.org/1999/xlink" width="32" height="33" viewBox="0 0 32 33">
  <defs>
    <filter id="Icon_material-live-help" x="3.281" y="5.587" width="26.263" height="27.283" filterUnits="userSpaceOnUse">
      <feOffset dy="2" input="SourceAlpha"/>
      <feGaussianBlur stdDeviation="1.5" result="blur"/>
      <feFlood flood-opacity="0.161"/>
      <feComposite operator="in" in2="blur"/>
      <feComposite in="SourceGraphic"/>
    </filter>
  </defs>
  <g id="Group_1322" data-name="Group 1322" transform="translate(-0.322 0.034)">
    <ellipse id="Ellipse_16" data-name="Ellipse 16" cx="16" cy="16.5" rx="16" ry="16.5" transform="translate(0.322 -0.034)" opacity="0.2"/>
    <g transform="matrix(1, 0, 0, 1, 0.32, -0.03)" filter="url(#Icon_material-live-help)">
      <path id="Icon_material-live-help-2" data-name="Icon material-live-help" d="M19.845,3H6.418A1.835,1.835,0,0,0,4.5,4.741V16.93a1.835,1.835,0,0,0,1.918,1.741h3.836l2.877,2.612,2.877-2.612h3.836a1.842,1.842,0,0,0,1.918-1.741V4.741A1.842,1.842,0,0,0,19.845,3ZM14.09,16.93H12.172V15.189H14.09Zm1.985-6.747-.863.8a2.847,2.847,0,0,0-1.122,2.464H12.172v-.435a3.35,3.35,0,0,1,1.122-2.464l1.189-1.1a1.629,1.629,0,0,0,.566-1.228,1.842,1.842,0,0,0-1.918-1.741,1.842,1.842,0,0,0-1.918,1.741H9.3a3.671,3.671,0,0,1,3.836-3.482,3.671,3.671,0,0,1,3.836,3.482A2.648,2.648,0,0,1,16.076,10.183Z" transform="translate(3.28 5.09)" fill="#fff"/>
    </g>
  </g>
</svg>
