<svg xmlns="http://www.w3.org/2000/svg" width="64.974" height="63.597" viewBox="0 0 64.974 63.597">
  <g id="Group_1466" data-name="Group 1466" transform="translate(394.974 1.663)">
    <path id="Path_1750" data-name="Path 1750" d="M-356.111,50.1a10.829,10.829,0,0,1-10.829,10.83A10.829,10.829,0,0,1-377.769,50.1,10.829,10.829,0,0,1-366.94,39.275,10.829,10.829,0,0,1-356.111,50.1Z" fill="none" stroke="#108690" stroke-width="2"/>
    <path id="Path_1751" data-name="Path 1751" d="M-363.838,4.345a3.1,3.1,0,0,1-3.1,3.1,3.1,3.1,0,0,1-3.1-3.1,3.1,3.1,0,0,1,3.1-3.1A3.1,3.1,0,0,1-363.838,4.345Z" fill="none" stroke="#108690" stroke-width="2"/>
    <path id="Path_1752" data-name="Path 1752" d="M-331.583,52.973a2.633,2.633,0,0,1-2.634,2.633,2.633,2.633,0,0,1-2.634-2.633,2.634,2.634,0,0,1,2.634-2.634A2.634,2.634,0,0,1-331.583,52.973Z" fill="none" stroke="#108690" stroke-width="2"/>
    <path id="Path_1753" data-name="Path 1753" d="M-373.95,35.645a14.2,14.2,0,0,1-5.8,1.231,14.224,14.224,0,0,1-14.224-14.224A14.224,14.224,0,0,1-379.75,8.429a14.214,14.214,0,0,1,12.156,6.834" fill="none" stroke="#108690" stroke-width="2"/>
    <path id="Path_1754" data-name="Path 1754" d="M-372.216,40.651a21.635,21.635,0,0,1-2.217-9.57A21.717,21.717,0,0,1-352.716,9.364,21.717,21.717,0,0,1-331,31.081,21.717,21.717,0,0,1-352.716,52.8a21.977,21.977,0,0,1-3.661-.307" fill="none" stroke="#108690" stroke-width="2"/>
    <path id="Path_1755" data-name="Path 1755" d="M-352.716,14.515a16.565,16.565,0,0,1,16.565,16.566" fill="none" stroke="#108690" stroke-width="2"/>
    <path id="Path_1756" data-name="Path 1756" d="M-379.994,13.145a9.653,9.653,0,0,0-9.653,9.653" fill="none" stroke="#108690" stroke-width="2"/>
    <path id="Path_1757" data-name="Path 1757" d="M-344.485,2.06a3.92,3.92,0,0,1,3.606,3.684,3.92,3.92,0,0,1,3.605-3.66A3.918,3.918,0,0,1-340.88-1.6,3.92,3.92,0,0,1-344.485,2.06Z" fill="none" stroke="#108690" stroke-width="2"/>
    <path id="Path_1758" data-name="Path 1758" d="M-390.889,50.09a4.8,4.8,0,0,1,4.412,4.506,4.794,4.794,0,0,1,4.409-4.477,4.8,4.8,0,0,1-4.411-4.506A4.8,4.8,0,0,1-390.889,50.09Z" fill="none" stroke="#108690" stroke-width="2"/>
    <path id="Path_1759" data-name="Path 1759" d="M-358.443,27.039a6.169,6.169,0,0,1,5.676,5.8,6.171,6.171,0,0,1,5.674-5.761,6.169,6.169,0,0,1-5.676-5.8A6.17,6.17,0,0,1-358.443,27.039Z" fill="none" stroke="#108690" stroke-width="2"/>
    <circle id="Ellipse_44" data-name="Ellipse 44" cx="0.467" cy="0.467" r="0.467" transform="translate(-381.339 25.521)" fill="none" stroke="#108690" stroke-width="2"/>
    <circle id="Ellipse_45" data-name="Ellipse 45" cx="0.468" cy="0.468" r="0.468" transform="translate(-381.339 41.711)" fill="none" stroke="#108690" stroke-width="2"/>
    <path id="Path_1760" data-name="Path 1760" d="M-343.5,57.07a.467.467,0,0,1-.467.467.467.467,0,0,1-.468-.467.467.467,0,0,1,.468-.468A.467.467,0,0,1-343.5,57.07Z" fill="none" stroke="#108690" stroke-width="2"/>
    <path id="Path_1761" data-name="Path 1761" d="M-391.361,57.537a.467.467,0,0,1-.468.468.468.468,0,0,1-.467-.468.468.468,0,0,1,.467-.467A.467.467,0,0,1-391.361,57.537Z" fill="none" stroke="#108690" stroke-width="2"/>
    <path id="Path_1762" data-name="Path 1762" d="M-350.083,43.373a.467.467,0,0,1-.467.467.467.467,0,0,1-.467-.467.468.468,0,0,1,.467-.468A.468.468,0,0,1-350.083,43.373Z" fill="none" stroke="#108690" stroke-width="2"/>
    <path id="Path_1763" data-name="Path 1763" d="M-354.531,3.277a.467.467,0,0,1-.467.467.468.468,0,0,1-.468-.467A.468.468,0,0,1-355,2.81.467.467,0,0,1-354.531,3.277Z" fill="none" stroke="#108690" stroke-width="2"/>
  </g>
</svg>
