<svg xmlns="http://www.w3.org/2000/svg" width="55.531" height="57.585" viewBox="0 0 55.531 57.585">
  <g id="Group_1469" data-name="Group 1469" transform="translate(180.309 -0.316)">
    <g id="Group_1467" data-name="Group 1467">
      <path id="Path_1764" data-name="Path 1764" d="M-175.007,18.174l-3.5,8.023V56.9h52.73V26.707l-6.563-14.951-6.783,14.66V56.463" fill="none" stroke="#108690" stroke-width="2"/>
      <path id="Path_1765" data-name="Path 1765" d="M-142.917,14.381l4.092-10.473a4.355,4.355,0,0,1,3.658-2.592h-34.584a6.234,6.234,0,0,0-5.233,3.708l-3.524,9.357,7.8-3.647,4.157,3.647,7.585-3.573,4.3,3.573L-147,10.808Z" fill="none" stroke="#108690" stroke-width="2"/>
      <path id="Path_1766" data-name="Path 1766" d="M-135.167,1.316s2.752.011,2.752,4.095v5.98" fill="none" stroke="#108690" stroke-width="2"/>
    </g>
    <g id="Group_1468" data-name="Group 1468">
      <path id="Path_1767" data-name="Path 1767" d="M-158.64,21.23l8.653-1.414a.608.608,0,0,1,.174,0l.06-.009a1.945,1.945,0,0,1,2.234,1.606l.012.071a.562.562,0,0,1,.05.166l1.368,8.66a2.907,2.907,0,0,1-.565,1.8l-.827,1.145-3.741,5.171-5.526,7.642a2.633,2.633,0,0,1-3.677.59l-9.246-6.687a2.632,2.632,0,0,1-.591-3.676l5.526-7.642,3.74-5.172.828-1.144A2.9,2.9,0,0,1-158.64,21.23Z" fill="none" stroke="#108690" stroke-width="2"/>
      <path id="Path_1768" data-name="Path 1768" d="M-151.365,22.363a1.231,1.231,0,0,0,.276,1.719,1.231,1.231,0,0,0,1.718-.276,1.231,1.231,0,0,0-.276-1.719A1.231,1.231,0,0,0-151.365,22.363Z" fill="none" stroke="#108690" stroke-width="2"/>
      <path id="Path_1769" data-name="Path 1769" d="M-148.714,12.7a15.364,15.364,0,0,0-2.729,5.962" fill="none" stroke="#108690" stroke-width="2"/>
      <path id="Path_1770" data-name="Path 1770" d="M-150.4,23.034c2.1,1.519,6.258-.647,9.288-4.836,2.652-3.666,3.56-7.667,2.339-9.627" fill="none" stroke="#108690" stroke-width="2"/>
    </g>
  </g>
</svg>
