<svg xmlns="http://www.w3.org/2000/svg" width="62.86" height="63.269" viewBox="0 0 62.86 63.269">
  <g id="Group_1465" data-name="Group 1465" transform="translate(282.845 5.368)">
    <path id="Path_1746" data-name="Path 1746" d="M-230.988,41.771a5.737,5.737,0,0,1-5.739,5.736h-39.38a5.736,5.736,0,0,1-5.738-5.736h0a5.737,5.737,0,0,1,5.738-5.737h39.38a5.738,5.738,0,0,1,5.739,5.737Z" fill="none" stroke="#108690" stroke-width="2"/>
    <path id="Path_1747" data-name="Path 1747" d="M-236.639,48.012a12.306,12.306,0,0,1-11.82,8.889h-15.915a12.3,12.3,0,0,1-11.644-8.328" fill="none" stroke="#108690" stroke-width="2"/>
    <path id="Path_1748" data-name="Path 1748" d="M-276.439,36.049a12.3,12.3,0,0,1,12.065-9.9h15.915a12.3,12.3,0,0,1,11.9,9.2" fill="none" stroke="#108690" stroke-width="2"/>
    <line id="Line_310" data-name="Line 310" x2="36.778" transform="translate(-256.763 5.402)" fill="none" stroke="#108690" stroke-width="2"/>
    <line id="Line_311" data-name="Line 311" x2="7.982" y2="10.152" transform="translate(-252.805 -4.75)" fill="none" stroke="#108690" stroke-width="2"/>
    <path id="Path_1749" data-name="Path 1749" d="M-247.059,56.9h17.814l4.725-51.5" fill="none" stroke="#108690" stroke-width="2"/>
    <line id="Line_312" data-name="Line 312" x2="2.109" y2="20.751" transform="translate(-252.294 5.402)" fill="none" stroke="#108690" stroke-width="2"/>
  </g>
</svg>
