<svg xmlns="http://www.w3.org/2000/svg" width="56.455" height="46.074" viewBox="0 0 56.455 46.074">
  <path id="Path_1719" data-name="Path 1719" d="M73.8,165.238v29.294H17.348V165.238h3.265V161.09H33.826V153.7H32.137v-5.24H59.156v5.272H58.032v7.4H72.465v4.107ZM37.748,193.1V171.65H18.906V193.1ZM72.39,171.644H53.541v21.444H72.39ZM49.675,193.094a1.531,1.531,0,0,0,.061-.269c0-5.072.014-10.144-.008-15.215a3.788,3.788,0,0,0-1.411-2.992,3.842,3.842,0,0,0-4.252-.636,3.777,3.777,0,0,0-2.408,3.628c-.026,5.024-.011,10.048-.009,15.073a2.845,2.845,0,0,0,.061.411ZM39.286,168.543V193.1h.9v-.719c0-1.825,0-3.649,0-5.474.009-3.246-.069-6.5.061-9.737a5.4,5.4,0,0,1,6.531-4.884,5.46,5.46,0,0,1,4.409,5.446c.02,4.858.007,9.716.007,14.574v.778h.8V168.543Zm18.437-18.637H33.6v2.29H57.723ZM35.4,160.121v2.509H56.452v-2.509Zm15.448-6.362H40.7v4.8H50.847ZM39.264,165.2v1.819H52.076v-1.816h4.433v-1.043H35.343v1.04Zm31.65-.034V162.6H58.063v2.573Zm-37.1-2.561H22.074v2.55H33.81Zm22.66-8.837H52.375v4.787H56.47Zm-17.353-.013h-3.7v4.8h3.7Zm30.06,12.952H66.2v3.344h2.982Zm-46.605,3.339h2.965v-3.342H22.572Zm42.072.025v-3.368H61.731v3.368Zm-37.576-3.379v3.366h2.916v-3.366Zm4.5.007v3.368H34.5V166.7Zm25.653,3.37h2.956v-3.364H57.217Zm-1.518,0V166.7H53.54v3.369Zm-36.8-.022H21.01V166.7H18.9Zm18.839.027v-3.353H36.046v3.353ZM70.719,166.7v3.362h1.665V166.7Z" transform="translate(-17.348 -148.458)" fill="#fff"/>
</svg>
