<svg xmlns="http://www.w3.org/2000/svg" xmlns:xlink="http://www.w3.org/1999/xlink" width="33" height="33" viewBox="0 0 33 33">
  <defs>
    <filter id="Icon_material-live-help" x="3.677" y="5.433" width="26.282" height="27.304" filterUnits="userSpaceOnUse">
      <feOffset dy="2" input="SourceAlpha"/>
      <feGaussianBlur stdDeviation="1.5" result="blur"/>
      <feFlood flood-opacity="0.161"/>
      <feComposite operator="in" in2="blur"/>
      <feComposite in="SourceGraphic"/>
    </filter>
  </defs>
  <g id="Group_1222" data-name="Group 1222" transform="translate(-0.076 -0.074)">
    <circle id="Ellipse_16" data-name="Ellipse 16" cx="16.5" cy="16.5" r="16.5" transform="translate(0.076 0.074)" fill="#7a5100"/>
    <g transform="matrix(1, 0, 0, 1, 0.08, 0.07)" filter="url(#Icon_material-live-help)">
      <path id="Icon_material-live-help-2" data-name="Icon material-live-help" d="M19.862,3H6.42A1.837,1.837,0,0,0,4.5,4.743v12.2a1.837,1.837,0,0,0,1.92,1.743h3.841l2.88,2.615,2.88-2.615h3.841a1.844,1.844,0,0,0,1.92-1.743V4.743A1.844,1.844,0,0,0,19.862,3ZM14.1,16.946h-1.92V15.2H14.1Zm1.987-6.755-.864.8A2.85,2.85,0,0,0,14.1,13.459h-1.92v-.436A3.353,3.353,0,0,1,13.3,10.557l1.191-1.1a1.631,1.631,0,0,0,.566-1.229,1.844,1.844,0,0,0-1.92-1.743,1.844,1.844,0,0,0-1.92,1.743H9.3a3.675,3.675,0,0,1,3.841-3.486A3.675,3.675,0,0,1,16.982,8.23a2.651,2.651,0,0,1-.893,1.961Z" transform="translate(3.68 4.93)" fill="#fff"/>
    </g>
  </g>
</svg>
