<svg xmlns="http://www.w3.org/2000/svg" width="112.851" height="88.131" viewBox="0 0 112.851 88.131">
  <g id="Group_1200" data-name="Group 1200" transform="translate(-103.768 -260.709)">
    <path id="Path_989" data-name="Path 989" d="M103.768,348.84V316.27a176.931,176.931,0,0,1,1.756-27.461q1.752-10.851,7.185-17.083t16.285-8.622q10.851-2.394,29.057-2.395v19.159q-8.943,0-13.73,1.6a9.592,9.592,0,0,0-6.386,6.067q-1.6,4.475-1.6,12.453v5.109H155.5V348.84Zm58.887,0V316.27a193.956,193.956,0,0,1,1.6-27.461q1.595-10.851,7.185-17.083t16.285-8.622q10.693-2.394,28.9-2.395v19.159q-8.943,0-13.73,1.6a9.6,9.6,0,0,0-6.387,6.067q-1.6,4.475-1.6,12.453v5.109h19.159V348.84Z" fill="#f3f0e8"/>
  </g>
</svg>
