<svg xmlns="http://www.w3.org/2000/svg" width="12.174" height="9.897" viewBox="0 0 12.174 9.897">
  <path id="Path_669" data-name="Path 669" d="M222.793,81.717a4.991,4.991,0,0,1-1.432.38,2.5,2.5,0,0,0,1.1-1.378,4.971,4.971,0,0,1-1.584.6,2.5,2.5,0,0,0-4.314,1.7,2.529,2.529,0,0,0,.065.57,7.077,7.077,0,0,1-5.138-2.6,2.5,2.5,0,0,0,.76,3.33,2.485,2.485,0,0,1-1.139-.315v.034a2.491,2.491,0,0,0,2,2.441,2.546,2.546,0,0,1-.657.091,2.7,2.7,0,0,1-.471-.046,2.5,2.5,0,0,0,2.328,1.732,4.992,4.992,0,0,1-3.095,1.067,5.225,5.225,0,0,1-.6-.034,7.069,7.069,0,0,0,10.917-5.954v-.323A5.153,5.153,0,0,0,222.793,81.717Z" transform="translate(-210.619 -80.535)" fill="#1da1f2"/>
</svg>
