<svg id="Group_1255" data-name="Group 1255" xmlns="http://www.w3.org/2000/svg" width="52.89" height="50.59" viewBox="0 0 52.89 50.59">
  <rect id="Rectangle_31" data-name="Rectangle 31" width="52.89" height="50.59" rx="25" fill="#fff"/>
  <path id="Path_669" data-name="Path 669" d="M238.614,83.254a11.478,11.478,0,0,1-3.292.873,5.741,5.741,0,0,0,2.524-3.17,11.431,11.431,0,0,1-3.642,1.388,5.737,5.737,0,0,0-9.92,3.92,5.815,5.815,0,0,0,.149,1.31,16.274,16.274,0,0,1-11.815-5.99,5.746,5.746,0,0,0,1.747,7.658,5.715,5.715,0,0,1-2.62-.725V88.6a5.728,5.728,0,0,0,4.6,5.614,5.854,5.854,0,0,1-1.51.21,6.213,6.213,0,0,1-1.083-.105,5.745,5.745,0,0,0,5.352,3.982,11.479,11.479,0,0,1-7.116,2.454,12.019,12.019,0,0,1-1.371-.079,16.273,16.273,0,0,0,8.793,2.619c10.54,0,16.312-8.732,16.312-16.312v-.742A11.851,11.851,0,0,0,238.614,83.254Z" transform="translate(-197.195 -66.93)" fill="#1da1f2"/>
</svg>
