<svg xmlns="http://www.w3.org/2000/svg" width="25.217" height="14.41" viewBox="0 0 25.217 14.41">
  <g id="Icon_ionic-ios-videocam" data-name="Icon ionic-ios-videocam" transform="translate(-2.25 -9)">
    <path id="Path_1726" data-name="Path 1726" d="M30.283,10.8a.962.962,0,0,0-.523.152l-4.869,3.073a.482.482,0,0,0-.225.405v4.278a.482.482,0,0,0,.225.405l4.869,3.073a1.012,1.012,0,0,0,.523.152h1.171a.479.479,0,0,0,.484-.478V11.278a.483.483,0,0,0-.484-.478Z" transform="translate(-4.471 -0.359)" fill="#fff"/>
    <path id="Path_1727" data-name="Path 1727" d="M15.843,23.41H5.149a2.908,2.908,0,0,1-2.9-2.893V11.893A2.9,2.9,0,0,1,5.143,9H15.838a2.9,2.9,0,0,1,2.893,2.893v8.618A2.9,2.9,0,0,1,15.843,23.41Z" fill="#fff"/>
  </g>
</svg>
