<svg xmlns="http://www.w3.org/2000/svg" width="10.909" height="7.671" viewBox="0 0 10.909 7.671">
  <path id="Path_670" data-name="Path 670" d="M320.4,85.668a2.382,2.382,0,0,0-.433-1.084,1.557,1.557,0,0,0-1.094-.46c-1.527-.109-3.815-.109-3.815-.109h0s-2.288,0-3.815.109a1.557,1.557,0,0,0-1.094.46,2.383,2.383,0,0,0-.433,1.084,16.542,16.542,0,0,0-.109,1.766v.828a16.554,16.554,0,0,0,.109,1.766,2.351,2.351,0,0,0,.433,1.081,1.838,1.838,0,0,0,1.2.467c.873.085,3.71.109,3.71.109s2.291,0,3.818-.112a1.564,1.564,0,0,0,1.094-.464,2.351,2.351,0,0,0,.433-1.081,16.538,16.538,0,0,0,.109-1.766v-.828A16.435,16.435,0,0,0,320.4,85.668Zm-6.477,3.6V86.2l2.952,1.551Z" transform="translate(-309.607 -84.014)" fill="red"/>
</svg>
