<svg id="Group_1252" data-name="Group 1252" xmlns="http://www.w3.org/2000/svg" width="52.89" height="50.59" viewBox="0 0 52.89 50.59">
  <rect id="Rectangle_32" data-name="Rectangle 32" width="52.89" height="50.59" rx="25" fill="#fff"/>
  <path id="Path_670" data-name="Path 670" d="M334.427,87.817a5.478,5.478,0,0,0-1-2.494,3.581,3.581,0,0,0-2.516-1.058c-3.512-.251-8.772-.251-8.772-.251h0s-5.26,0-8.772.251a3.58,3.58,0,0,0-2.517,1.058,5.479,5.479,0,0,0-1,2.494,38.043,38.043,0,0,0-.251,4.06v1.905a38.069,38.069,0,0,0,.251,4.062,5.406,5.406,0,0,0,1,2.485,4.227,4.227,0,0,0,2.767,1.074c2.007.195,8.53.25,8.53.25s5.268,0,8.78-.258a3.6,3.6,0,0,0,2.516-1.066,5.406,5.406,0,0,0,1-2.485,38.037,38.037,0,0,0,.251-4.062V91.877A37.812,37.812,0,0,0,334.427,87.817Zm-14.9,8.271V89.032l6.789,3.567Z" transform="translate(-296.951 -68.465)" fill="red"/>
</svg>
